<svg width="26" height="22" viewBox="0 0 26 22" fill="none" xmlns="http://www.w3.org/2000/svg">
<path fill-rule="evenodd" clip-rule="evenodd" d="M20.2129 8.12071C19.8896 8.46561 19.6 9.05689 19.6 10C19.6 10.6627 19.0627 11.2 18.4 11.2C17.7372 11.2 17.2 10.6627 17.2 10C17.2 8.54311 17.6604 7.33437 18.462 6.47926C19.258 5.63027 20.328 5.19998 21.4 5.19998C22.472 5.19998 23.542 5.63027 24.3379 6.47926C25.1396 7.33438 25.6 8.54311 25.6 10C25.6 10.6628 25.0627 11.2 24.4 11.2C23.7372 11.2 23.2 10.6628 23.2 10C23.2 9.05689 22.9104 8.46561 22.587 8.12072C22.258 7.7697 21.828 7.59998 21.4 7.59998C20.972 7.59998 20.542 7.76969 20.2129 8.12071Z" fill="#0C5497"/>
<path fill-rule="evenodd" clip-rule="evenodd" d="M17.2 16.35C18.6937 14.6577 19.6 12.4347 19.6 9.99999V0.399994L16.7882 3.21177C15.051 1.47451 12.651 0.399994 9.99999 0.399994C7.34903 0.399994 4.94903 1.47451 3.21177 3.21177L0.399994 0.399994V9.99999C0.399994 12.4347 1.30632 14.6577 2.79999 16.35V18.4C2.79999 19.0627 3.33725 19.6 3.99999 19.6C4.66274 19.6 5.19999 19.0627 5.19999 18.4V18.3157C5.58397 18.5378 5.98477 18.7341 6.39999 18.9022V20.8C6.39999 21.4627 6.93725 22 7.59999 22C8.26274 22 8.79999 21.4627 8.79999 20.8V19.5257C9.19311 19.5747 9.5936 19.6 9.99999 19.6C10.4064 19.6 10.8069 19.5747 11.2 19.5257V20.8C11.2 21.4627 11.7373 22 12.4 22C13.0627 22 13.6 21.4627 13.6 20.8V18.9022C14.0152 18.7341 14.416 18.5378 14.8 18.3157V18.4C14.8 19.0627 15.3373 19.6 16 19.6C16.6627 19.6 17.2 19.0627 17.2 18.4V16.35Z" fill="#0C5497"/>
<ellipse cx="5.2" cy="6.39998" rx="1.2" ry="1.2" fill="#C4C4C4"/>
<circle cx="14.8" cy="6.39998" r="1.2" fill="#C4C4C4"/>
<path fill-rule="evenodd" clip-rule="evenodd" d="M11.8 6.39999C11.4686 6.39999 11.2 6.66862 11.2 6.99999C11.2 7.43718 11.042 7.72098 10.8389 7.90155C10.6247 8.09193 10.3222 8.19999 9.99999 8.19999C9.67784 8.19999 9.37529 8.09193 9.16111 7.90155C8.95797 7.72098 8.79999 7.43718 8.79999 6.99999C8.79999 6.66862 8.53137 6.39999 8.19999 6.39999C7.86862 6.39999 7.59999 6.66862 7.59999 6.99999C7.59999 7.76281 7.89202 8.37901 8.36388 8.79844C8.82469 9.20806 9.42215 9.39999 9.99999 9.39999C10.5778 9.39999 11.1753 9.20806 11.6361 8.79844C12.108 8.37901 12.4 7.76281 12.4 6.99999C12.4 6.66862 12.1314 6.39999 11.8 6.39999Z" fill="#C4C4C4"/>
</svg>
