<svg width="428" height="762" viewBox="0 0 428 762" fill="none" xmlns="http://www.w3.org/2000/svg">
<g clip-path="url(#clip0_19_404)">
<rect width="428" height="762" fill="#F4E8DE"/>
<g clip-path="url(#clip1_19_404)">
<g clip-path="url(#clip2_19_404)">
<path d="M17.3906 94.7031L20.2129 84.7812H21.5801L20.7891 88.6387L17.752 99H16.3945L17.3906 94.7031ZM14.4707 84.7812L16.7168 94.5078L17.3906 99H16.043L12.5957 84.7812H14.4707ZM25.2324 94.498L27.4297 84.7812H29.3145L25.877 99H24.5293L25.2324 94.498ZM21.7852 84.7812L24.5293 94.7031L25.5254 99H24.168L21.2383 88.6387L20.4375 84.7812H21.7852ZM35.2031 99.1953C34.4674 99.1953 33.8001 99.0716 33.2012 98.8242C32.6087 98.5703 32.0977 98.2155 31.668 97.7598C31.2448 97.304 30.9193 96.7637 30.6914 96.1387C30.4635 95.5137 30.3496 94.8301 30.3496 94.0879V93.6777C30.3496 92.8184 30.4766 92.0534 30.7305 91.3828C30.9844 90.7057 31.3294 90.1328 31.7656 89.6641C32.2018 89.1953 32.6966 88.8405 33.25 88.5996C33.8034 88.3587 34.3763 88.2383 34.9688 88.2383C35.724 88.2383 36.375 88.3685 36.9219 88.6289C37.4753 88.8893 37.9277 89.2539 38.2793 89.7227C38.6309 90.1849 38.8913 90.7318 39.0605 91.3633C39.2298 91.9883 39.3145 92.6719 39.3145 93.4141V94.2246H31.4238V92.75H37.5078V92.6133C37.4818 92.1445 37.3841 91.6888 37.2148 91.2461C37.0521 90.8034 36.7917 90.4388 36.4336 90.1523C36.0755 89.8659 35.5872 89.7227 34.9688 89.7227C34.5586 89.7227 34.181 89.8105 33.8359 89.9863C33.4909 90.1556 33.1947 90.4095 32.9473 90.748C32.6999 91.0866 32.5078 91.5 32.3711 91.9883C32.2344 92.4766 32.166 93.0397 32.166 93.6777V94.0879C32.166 94.5892 32.2344 95.0612 32.3711 95.5039C32.5143 95.9401 32.7194 96.3242 32.9863 96.6562C33.2598 96.9883 33.5885 97.2487 33.9727 97.4375C34.3633 97.6263 34.806 97.7207 35.3008 97.7207C35.9388 97.7207 36.4792 97.5905 36.9219 97.3301C37.3646 97.0697 37.752 96.7214 38.084 96.2852L39.1777 97.1543C38.9499 97.4993 38.6602 97.8281 38.3086 98.1406C37.957 98.4531 37.5241 98.707 37.0098 98.9023C36.502 99.0977 35.8997 99.1953 35.2031 99.1953ZM43.3867 88.4336V99H41.5703V88.4336H43.3867ZM41.4336 85.6309C41.4336 85.3379 41.5215 85.0905 41.6973 84.8887C41.8796 84.6868 42.1465 84.5859 42.498 84.5859C42.8431 84.5859 43.1068 84.6868 43.2891 84.8887C43.4779 85.0905 43.5723 85.3379 43.5723 85.6309C43.5723 85.9108 43.4779 86.1517 43.2891 86.3535C43.1068 86.5488 42.8431 86.6465 42.498 86.6465C42.1465 86.6465 41.8796 86.5488 41.6973 86.3535C41.5215 86.1517 41.4336 85.9108 41.4336 85.6309ZM53.1328 88.4336H54.7734V98.7754C54.7734 99.7064 54.5846 100.501 54.207 101.158C53.8294 101.816 53.3021 102.314 52.625 102.652C51.9544 102.997 51.1797 103.17 50.3008 103.17C49.9362 103.17 49.5065 103.111 49.0117 102.994C48.5234 102.883 48.0417 102.691 47.5664 102.418C47.0977 102.151 46.7038 101.79 46.3848 101.334L47.332 100.26C47.7747 100.794 48.237 101.165 48.7188 101.373C49.207 101.581 49.6888 101.686 50.1641 101.686C50.737 101.686 51.2318 101.578 51.6484 101.363C52.0651 101.148 52.3874 100.829 52.6152 100.406C52.8496 99.9896 52.9668 99.4753 52.9668 98.8633V90.7578L53.1328 88.4336ZM45.8574 93.834V93.6289C45.8574 92.8216 45.9518 92.0892 46.1406 91.4316C46.3359 90.7676 46.6126 90.1979 46.9707 89.7227C47.3353 89.2474 47.7747 88.8828 48.2891 88.6289C48.8034 88.3685 49.3828 88.2383 50.0273 88.2383C50.6914 88.2383 51.2708 88.3555 51.7656 88.5898C52.2669 88.8177 52.6901 89.153 53.0352 89.5957C53.3867 90.0319 53.6634 90.5592 53.8652 91.1777C54.0671 91.7962 54.207 92.4961 54.2852 93.2773V94.1758C54.2135 94.9505 54.0736 95.6471 53.8652 96.2656C53.6634 96.8841 53.3867 97.4115 53.0352 97.8477C52.6901 98.2839 52.2669 98.6191 51.7656 98.8535C51.2643 99.0814 50.6784 99.1953 50.0078 99.1953C49.3763 99.1953 48.8034 99.0618 48.2891 98.7949C47.7812 98.528 47.3451 98.1536 46.9805 97.6719C46.6159 97.1901 46.3359 96.6237 46.1406 95.9727C45.9518 95.3151 45.8574 94.6022 45.8574 93.834ZM47.6641 93.6289V93.834C47.6641 94.3613 47.7161 94.8561 47.8203 95.3184C47.931 95.7806 48.097 96.1875 48.3184 96.5391C48.5462 96.8906 48.8359 97.1673 49.1875 97.3691C49.5391 97.5645 49.959 97.6621 50.4473 97.6621C51.0462 97.6621 51.541 97.5352 51.9316 97.2812C52.3223 97.0273 52.6315 96.6921 52.8594 96.2754C53.0938 95.8587 53.276 95.4062 53.4062 94.918V92.5645C53.3346 92.2064 53.224 91.8613 53.0742 91.5293C52.931 91.1908 52.7422 90.8913 52.5078 90.6309C52.2799 90.3639 51.9967 90.1523 51.6582 89.9961C51.3197 89.8398 50.9225 89.7617 50.4668 89.7617C49.972 89.7617 49.5456 89.8659 49.1875 90.0742C48.8359 90.276 48.5462 90.556 48.3184 90.9141C48.097 91.2656 47.931 91.6758 47.8203 92.1445C47.7161 92.6068 47.6641 93.1016 47.6641 93.6289ZM59.3242 84V99H57.5176V84H59.3242ZM58.8945 93.3164L58.1426 93.2871C58.1491 92.5645 58.2565 91.8971 58.4648 91.2852C58.6732 90.6667 58.9661 90.1296 59.3438 89.6738C59.7214 89.2181 60.1706 88.8665 60.6914 88.6191C61.2188 88.3652 61.8014 88.2383 62.4395 88.2383C62.9603 88.2383 63.429 88.3099 63.8457 88.4531C64.2624 88.5898 64.6172 88.8112 64.9102 89.1172C65.2096 89.4232 65.4375 89.8203 65.5938 90.3086C65.75 90.7904 65.8281 91.3796 65.8281 92.0762V99H64.0117V92.0566C64.0117 91.5033 63.9303 91.0605 63.7676 90.7285C63.6048 90.39 63.3672 90.1458 63.0547 89.9961C62.7422 89.8398 62.3581 89.7617 61.9023 89.7617C61.4531 89.7617 61.043 89.8561 60.6719 90.0449C60.3073 90.2337 59.9915 90.4941 59.7246 90.8262C59.4642 91.1582 59.2591 91.5391 59.1094 91.9688C58.9661 92.3919 58.8945 92.8411 58.8945 93.3164ZM72.957 88.4336V89.8203H67.2441V88.4336H72.957ZM69.1777 85.8652H70.9844V96.3828C70.9844 96.7409 71.0397 97.0111 71.1504 97.1934C71.2611 97.3757 71.4043 97.4961 71.5801 97.5547C71.7559 97.6133 71.9447 97.6426 72.1465 97.6426C72.2962 97.6426 72.4525 97.6296 72.6152 97.6035C72.7845 97.571 72.9115 97.5449 72.9961 97.5254L73.0059 99C72.8626 99.0456 72.6738 99.0879 72.4395 99.127C72.2116 99.1725 71.9349 99.1953 71.6094 99.1953C71.1667 99.1953 70.7598 99.1074 70.3887 98.9316C70.0176 98.7559 69.7214 98.4629 69.5 98.0527C69.2852 97.6361 69.1777 97.0762 69.1777 96.373V85.8652ZM74.998 98.043C74.998 97.737 75.0924 97.4798 75.2812 97.2715C75.4766 97.0566 75.7565 96.9492 76.1211 96.9492C76.4857 96.9492 76.7624 97.0566 76.9512 97.2715C77.1465 97.4798 77.2441 97.737 77.2441 98.043C77.2441 98.3424 77.1465 98.5964 76.9512 98.8047C76.7624 99.013 76.4857 99.1172 76.1211 99.1172C75.7565 99.1172 75.4766 99.013 75.2812 98.8047C75.0924 98.5964 74.998 98.3424 74.998 98.043ZM75.0078 89.4199C75.0078 89.1139 75.1022 88.8568 75.291 88.6484C75.4863 88.4336 75.7663 88.3262 76.1309 88.3262C76.4954 88.3262 76.7721 88.4336 76.9609 88.6484C77.1562 88.8568 77.2539 89.1139 77.2539 89.4199C77.2539 89.7194 77.1562 89.9733 76.9609 90.1816C76.7721 90.39 76.4954 90.4941 76.1309 90.4941C75.7663 90.4941 75.4863 90.39 75.291 90.1816C75.1022 89.9733 75.0078 89.7194 75.0078 89.4199Z" fill="#332317"/>
<path d="M18.7188 126.35H15.1152L15.0957 124.836H18.3672C18.9076 124.836 19.3796 124.745 19.7832 124.562C20.1868 124.38 20.4993 124.12 20.7207 123.781C20.9486 123.436 21.0625 123.026 21.0625 122.551C21.0625 122.03 20.9616 121.607 20.7598 121.281C20.5645 120.949 20.2617 120.708 19.8516 120.559C19.4479 120.402 18.9336 120.324 18.3086 120.324H15.5352V133H13.6504V118.781H18.3086C19.0378 118.781 19.6888 118.856 20.2617 119.006C20.8346 119.149 21.3197 119.377 21.7168 119.689C22.1204 119.995 22.4264 120.386 22.6348 120.861C22.8431 121.337 22.9473 121.906 22.9473 122.57C22.9473 123.156 22.7975 123.687 22.498 124.162C22.1986 124.631 21.7819 125.015 21.248 125.314C20.7207 125.614 20.1022 125.806 19.3926 125.891L18.7188 126.35ZM18.6309 133H14.373L15.4375 131.467H18.6309C19.2298 131.467 19.7376 131.363 20.1543 131.154C20.5775 130.946 20.8997 130.653 21.1211 130.275C21.3424 129.891 21.4531 129.439 21.4531 128.918C21.4531 128.391 21.3587 127.935 21.1699 127.551C20.9811 127.167 20.6849 126.87 20.2812 126.662C19.8776 126.454 19.3568 126.35 18.7188 126.35H16.0332L16.0527 124.836H19.7246L20.125 125.383C20.8086 125.441 21.388 125.637 21.8633 125.969C22.3385 126.294 22.6999 126.711 22.9473 127.219C23.2012 127.727 23.3281 128.286 23.3281 128.898C23.3281 129.784 23.1328 130.533 22.7422 131.145C22.3581 131.75 21.8145 132.212 21.1113 132.531C20.4082 132.844 19.5814 133 18.6309 133ZM27.8008 122.434V133H25.9844V122.434H27.8008ZM25.8477 119.631C25.8477 119.338 25.9355 119.09 26.1113 118.889C26.2936 118.687 26.5605 118.586 26.9121 118.586C27.2572 118.586 27.5208 118.687 27.7031 118.889C27.8919 119.09 27.9863 119.338 27.9863 119.631C27.9863 119.911 27.8919 120.152 27.7031 120.354C27.5208 120.549 27.2572 120.646 26.9121 120.646C26.5605 120.646 26.2936 120.549 26.1113 120.354C25.9355 120.152 25.8477 119.911 25.8477 119.631ZM32.5078 124.094V133H30.7012V122.434H32.459L32.5078 124.094ZM35.8086 122.375L35.7988 124.055C35.6491 124.022 35.5059 124.003 35.3691 123.996C35.2389 123.983 35.0892 123.977 34.9199 123.977C34.5033 123.977 34.1354 124.042 33.8164 124.172C33.4974 124.302 33.2272 124.484 33.0059 124.719C32.7845 124.953 32.6087 125.233 32.4785 125.559C32.3548 125.878 32.2734 126.229 32.2344 126.613L31.7266 126.906C31.7266 126.268 31.7884 125.669 31.9121 125.109C32.0423 124.549 32.2409 124.055 32.5078 123.625C32.7747 123.189 33.1133 122.85 33.5234 122.609C33.9401 122.362 34.4349 122.238 35.0078 122.238C35.138 122.238 35.2878 122.255 35.457 122.287C35.6263 122.313 35.7435 122.342 35.8086 122.375ZM42.3906 122.434V123.82H36.6777V122.434H42.3906ZM38.6113 119.865H40.418V130.383C40.418 130.741 40.4733 131.011 40.584 131.193C40.6947 131.376 40.8379 131.496 41.0137 131.555C41.1895 131.613 41.3783 131.643 41.5801 131.643C41.7298 131.643 41.8861 131.63 42.0488 131.604C42.2181 131.571 42.3451 131.545 42.4297 131.525L42.4395 133C42.2962 133.046 42.1074 133.088 41.873 133.127C41.6452 133.173 41.3685 133.195 41.043 133.195C40.6003 133.195 40.1934 133.107 39.8223 132.932C39.4512 132.756 39.1549 132.463 38.9336 132.053C38.7188 131.636 38.6113 131.076 38.6113 130.373V119.865ZM46.3164 118V133H44.5098V118H46.3164ZM45.8867 127.316L45.1348 127.287C45.1413 126.564 45.2487 125.897 45.457 125.285C45.6654 124.667 45.9583 124.13 46.3359 123.674C46.7135 123.218 47.1628 122.867 47.6836 122.619C48.2109 122.365 48.7936 122.238 49.4316 122.238C49.9525 122.238 50.4212 122.31 50.8379 122.453C51.2546 122.59 51.6094 122.811 51.9023 123.117C52.2018 123.423 52.4297 123.82 52.5859 124.309C52.7422 124.79 52.8203 125.38 52.8203 126.076V133H51.0039V126.057C51.0039 125.503 50.9225 125.061 50.7598 124.729C50.597 124.39 50.3594 124.146 50.0469 123.996C49.7344 123.84 49.3503 123.762 48.8945 123.762C48.4453 123.762 48.0352 123.856 47.6641 124.045C47.2995 124.234 46.9837 124.494 46.7168 124.826C46.4564 125.158 46.2513 125.539 46.1016 125.969C45.9583 126.392 45.8867 126.841 45.8867 127.316ZM62.1855 130.949V118H64.002V133H62.3418L62.1855 130.949ZM55.0762 127.834V127.629C55.0762 126.822 55.1738 126.089 55.3691 125.432C55.571 124.768 55.8542 124.198 56.2188 123.723C56.5898 123.247 57.0293 122.883 57.5371 122.629C58.0514 122.368 58.6243 122.238 59.2559 122.238C59.9199 122.238 60.4993 122.355 60.9941 122.59C61.4954 122.818 61.9186 123.153 62.2637 123.596C62.6152 124.032 62.8919 124.559 63.0938 125.178C63.2956 125.796 63.4355 126.496 63.5137 127.277V128.176C63.4421 128.951 63.3021 129.647 63.0938 130.266C62.8919 130.884 62.6152 131.411 62.2637 131.848C61.9186 132.284 61.4954 132.619 60.9941 132.854C60.4928 133.081 59.9069 133.195 59.2363 133.195C58.6178 133.195 58.0514 133.062 57.5371 132.795C57.0293 132.528 56.5898 132.154 56.2188 131.672C55.8542 131.19 55.571 130.624 55.3691 129.973C55.1738 129.315 55.0762 128.602 55.0762 127.834ZM56.8926 127.629V127.834C56.8926 128.361 56.9447 128.856 57.0488 129.318C57.1595 129.781 57.3288 130.188 57.5566 130.539C57.7845 130.891 58.0742 131.167 58.4258 131.369C58.7773 131.564 59.1973 131.662 59.6855 131.662C60.2845 131.662 60.776 131.535 61.1602 131.281C61.5508 131.027 61.8633 130.692 62.0977 130.275C62.332 129.859 62.5143 129.406 62.6445 128.918V126.564C62.5664 126.206 62.4525 125.861 62.3027 125.529C62.1595 125.191 61.9707 124.891 61.7363 124.631C61.5085 124.364 61.2253 124.152 60.8867 123.996C60.5547 123.84 60.1608 123.762 59.7051 123.762C59.2103 123.762 58.7839 123.866 58.4258 124.074C58.0742 124.276 57.7845 124.556 57.5566 124.914C57.3288 125.266 57.1595 125.676 57.0488 126.145C56.9447 126.607 56.8926 127.102 56.8926 127.629ZM73.0449 131.193V125.754C73.0449 125.337 72.9603 124.976 72.791 124.67C72.6283 124.357 72.3809 124.117 72.0488 123.947C71.7168 123.778 71.3066 123.693 70.8184 123.693C70.3626 123.693 69.9622 123.771 69.6172 123.928C69.2786 124.084 69.0117 124.289 68.8164 124.543C68.6276 124.797 68.5332 125.07 68.5332 125.363H66.7266C66.7266 124.986 66.8242 124.611 67.0195 124.24C67.2148 123.869 67.4948 123.534 67.8594 123.234C68.2305 122.928 68.6732 122.688 69.1875 122.512C69.7083 122.329 70.2878 122.238 70.9258 122.238C71.694 122.238 72.3711 122.368 72.957 122.629C73.5495 122.889 74.0117 123.283 74.3438 123.811C74.6823 124.331 74.8516 124.986 74.8516 125.773V130.695C74.8516 131.047 74.8809 131.421 74.9395 131.818C75.0046 132.215 75.099 132.557 75.2227 132.844V133H73.3379C73.2467 132.792 73.1751 132.515 73.123 132.17C73.071 131.818 73.0449 131.493 73.0449 131.193ZM73.3574 126.594L73.377 127.863H71.5508C71.0365 127.863 70.5775 127.906 70.1738 127.99C69.7702 128.068 69.4316 128.189 69.1582 128.352C68.8848 128.514 68.6764 128.719 68.5332 128.967C68.39 129.208 68.3184 129.491 68.3184 129.816C68.3184 130.148 68.3932 130.451 68.543 130.725C68.6927 130.998 68.9173 131.216 69.2168 131.379C69.5228 131.535 69.8971 131.613 70.3398 131.613C70.8932 131.613 71.3815 131.496 71.8047 131.262C72.2279 131.027 72.5632 130.741 72.8105 130.402C73.0645 130.064 73.2012 129.735 73.2207 129.416L73.9922 130.285C73.9466 130.559 73.8229 130.861 73.6211 131.193C73.4193 131.525 73.1491 131.844 72.8105 132.15C72.4785 132.45 72.0814 132.701 71.6191 132.902C71.1634 133.098 70.6491 133.195 70.0762 133.195C69.36 133.195 68.7318 133.055 68.1914 132.775C67.6576 132.495 67.2409 132.121 66.9414 131.652C66.6484 131.177 66.502 130.646 66.502 130.061C66.502 129.494 66.6126 128.996 66.834 128.566C67.0553 128.13 67.3743 127.769 67.791 127.482C68.2077 127.189 68.709 126.968 69.2949 126.818C69.8809 126.669 70.5352 126.594 71.2578 126.594H73.3574ZM80.5059 131.906L83.4453 122.434H85.3789L81.1406 134.631C81.043 134.891 80.9128 135.171 80.75 135.471C80.5938 135.777 80.3919 136.066 80.1445 136.34C79.8971 136.613 79.5977 136.835 79.2461 137.004C78.901 137.18 78.4876 137.268 78.0059 137.268C77.8626 137.268 77.6803 137.248 77.459 137.209C77.2376 137.17 77.0814 137.137 76.9902 137.111L76.9805 135.646C77.0326 135.653 77.1139 135.66 77.2246 135.666C77.3418 135.679 77.4232 135.686 77.4688 135.686C77.8789 135.686 78.2272 135.63 78.5137 135.52C78.8001 135.415 79.041 135.236 79.2363 134.982C79.4382 134.735 79.6107 134.393 79.7539 133.957L80.5059 131.906ZM78.3477 122.434L81.0918 130.637L81.5605 132.541L80.2617 133.205L76.375 122.434H78.3477ZM86.9316 132.043C86.9316 131.737 87.026 131.48 87.2148 131.271C87.4102 131.057 87.6901 130.949 88.0547 130.949C88.4193 130.949 88.696 131.057 88.8848 131.271C89.0801 131.48 89.1777 131.737 89.1777 132.043C89.1777 132.342 89.0801 132.596 88.8848 132.805C88.696 133.013 88.4193 133.117 88.0547 133.117C87.6901 133.117 87.4102 133.013 87.2148 132.805C87.026 132.596 86.9316 132.342 86.9316 132.043ZM86.9414 123.42C86.9414 123.114 87.0358 122.857 87.2246 122.648C87.4199 122.434 87.6999 122.326 88.0645 122.326C88.429 122.326 88.7057 122.434 88.8945 122.648C89.0898 122.857 89.1875 123.114 89.1875 123.42C89.1875 123.719 89.0898 123.973 88.8945 124.182C88.7057 124.39 88.429 124.494 88.0645 124.494C87.6999 124.494 87.4199 124.39 87.2246 124.182C87.0358 123.973 86.9414 123.719 86.9414 123.42Z" fill="#332317"/>
<path d="M18.9141 154.041L14.207 167H12.2832L17.7031 152.781H18.9434L18.9141 154.041ZM22.8594 167L18.1426 154.041L18.1133 152.781H19.3535L24.793 167H22.8594ZM22.6152 161.736V163.279H14.627V161.736H22.6152ZM33.2695 156.434H34.9102V166.775C34.9102 167.706 34.7214 168.501 34.3438 169.158C33.9661 169.816 33.4388 170.314 32.7617 170.652C32.0911 170.997 31.3164 171.17 30.4375 171.17C30.0729 171.17 29.6432 171.111 29.1484 170.994C28.6602 170.883 28.1784 170.691 27.7031 170.418C27.2344 170.151 26.8405 169.79 26.5215 169.334L27.4688 168.26C27.9115 168.794 28.3737 169.165 28.8555 169.373C29.3438 169.581 29.8255 169.686 30.3008 169.686C30.8737 169.686 31.3685 169.578 31.7852 169.363C32.2018 169.148 32.5241 168.829 32.752 168.406C32.9863 167.99 33.1035 167.475 33.1035 166.863V158.758L33.2695 156.434ZM25.9941 161.834V161.629C25.9941 160.822 26.0885 160.089 26.2773 159.432C26.4727 158.768 26.7493 158.198 27.1074 157.723C27.472 157.247 27.9115 156.883 28.4258 156.629C28.9401 156.368 29.5195 156.238 30.1641 156.238C30.8281 156.238 31.4076 156.355 31.9023 156.59C32.4036 156.818 32.8268 157.153 33.1719 157.596C33.5234 158.032 33.8001 158.559 34.002 159.178C34.2038 159.796 34.3438 160.496 34.4219 161.277V162.176C34.3503 162.951 34.2103 163.647 34.002 164.266C33.8001 164.884 33.5234 165.411 33.1719 165.848C32.8268 166.284 32.4036 166.619 31.9023 166.854C31.401 167.081 30.8151 167.195 30.1445 167.195C29.513 167.195 28.9401 167.062 28.4258 166.795C27.918 166.528 27.4818 166.154 27.1172 165.672C26.7526 165.19 26.4727 164.624 26.2773 163.973C26.0885 163.315 25.9941 162.602 25.9941 161.834ZM27.8008 161.629V161.834C27.8008 162.361 27.8529 162.856 27.957 163.318C28.0677 163.781 28.2337 164.188 28.4551 164.539C28.6829 164.891 28.9727 165.167 29.3242 165.369C29.6758 165.564 30.0957 165.662 30.584 165.662C31.1829 165.662 31.6777 165.535 32.0684 165.281C32.459 165.027 32.7682 164.692 32.9961 164.275C33.2305 163.859 33.4128 163.406 33.543 162.918V160.564C33.4714 160.206 33.3607 159.861 33.2109 159.529C33.0677 159.191 32.8789 158.891 32.6445 158.631C32.4167 158.364 32.1335 158.152 31.7949 157.996C31.4564 157.84 31.0592 157.762 30.6035 157.762C30.1087 157.762 29.6823 157.866 29.3242 158.074C28.9727 158.276 28.6829 158.556 28.4551 158.914C28.2337 159.266 28.0677 159.676 27.957 160.145C27.8529 160.607 27.8008 161.102 27.8008 161.629ZM42.0391 167.195C41.3034 167.195 40.6361 167.072 40.0371 166.824C39.4447 166.57 38.9336 166.215 38.5039 165.76C38.0807 165.304 37.7552 164.764 37.5273 164.139C37.2995 163.514 37.1855 162.83 37.1855 162.088V161.678C37.1855 160.818 37.3125 160.053 37.5664 159.383C37.8203 158.706 38.1654 158.133 38.6016 157.664C39.0378 157.195 39.5326 156.84 40.0859 156.6C40.6393 156.359 41.2122 156.238 41.8047 156.238C42.5599 156.238 43.2109 156.368 43.7578 156.629C44.3112 156.889 44.7637 157.254 45.1152 157.723C45.4668 158.185 45.7272 158.732 45.8965 159.363C46.0658 159.988 46.1504 160.672 46.1504 161.414V162.225H38.2598V160.75H44.3438V160.613C44.3177 160.145 44.2201 159.689 44.0508 159.246C43.888 158.803 43.6276 158.439 43.2695 158.152C42.9115 157.866 42.4232 157.723 41.8047 157.723C41.3945 157.723 41.0169 157.811 40.6719 157.986C40.3268 158.156 40.0306 158.41 39.7832 158.748C39.5358 159.087 39.3438 159.5 39.207 159.988C39.0703 160.477 39.002 161.04 39.002 161.678V162.088C39.002 162.589 39.0703 163.061 39.207 163.504C39.3503 163.94 39.5553 164.324 39.8223 164.656C40.0957 164.988 40.4245 165.249 40.8086 165.438C41.1992 165.626 41.6419 165.721 42.1367 165.721C42.7747 165.721 43.3151 165.59 43.7578 165.33C44.2005 165.07 44.5879 164.721 44.9199 164.285L46.0137 165.154C45.7858 165.499 45.4961 165.828 45.1445 166.141C44.793 166.453 44.36 166.707 43.8457 166.902C43.3379 167.098 42.7357 167.195 42.0391 167.195ZM48.1816 166.043C48.1816 165.737 48.276 165.48 48.4648 165.271C48.6602 165.057 48.9401 164.949 49.3047 164.949C49.6693 164.949 49.946 165.057 50.1348 165.271C50.3301 165.48 50.4277 165.737 50.4277 166.043C50.4277 166.342 50.3301 166.596 50.1348 166.805C49.946 167.013 49.6693 167.117 49.3047 167.117C48.9401 167.117 48.6602 167.013 48.4648 166.805C48.276 166.596 48.1816 166.342 48.1816 166.043ZM48.1914 157.42C48.1914 157.114 48.2858 156.857 48.4746 156.648C48.6699 156.434 48.9499 156.326 49.3145 156.326C49.679 156.326 49.9557 156.434 50.1445 156.648C50.3398 156.857 50.4375 157.114 50.4375 157.42C50.4375 157.719 50.3398 157.973 50.1445 158.182C49.9557 158.39 49.679 158.494 49.3145 158.494C48.9499 158.494 48.6699 158.39 48.4746 158.182C48.2858 157.973 48.1914 157.719 48.1914 157.42Z" fill="#332317"/>
<path d="M24.1582 193.92V199.125C23.9824 199.385 23.7025 199.678 23.3184 200.004C22.9342 200.323 22.4036 200.603 21.7266 200.844C21.056 201.078 20.1901 201.195 19.1289 201.195C18.263 201.195 17.4655 201.046 16.7363 200.746C16.0137 200.44 15.3854 199.997 14.8516 199.418C14.3242 198.832 13.9141 198.122 13.6211 197.289C13.3346 196.449 13.1914 195.499 13.1914 194.438V193.334C13.1914 192.273 13.3151 191.326 13.5625 190.492C13.8164 189.659 14.1875 188.952 14.6758 188.373C15.1641 187.787 15.763 187.344 16.4727 187.045C17.1823 186.739 17.9961 186.586 18.9141 186.586C20.0013 186.586 20.9095 186.775 21.6387 187.152C22.3743 187.523 22.9473 188.038 23.3574 188.695C23.7741 189.353 24.041 190.102 24.1582 190.941H22.2734C22.1888 190.427 22.0195 189.958 21.7656 189.535C21.5182 189.112 21.1634 188.773 20.7012 188.52C20.2389 188.259 19.6432 188.129 18.9141 188.129C18.2565 188.129 17.6868 188.249 17.2051 188.49C16.7233 188.731 16.3262 189.076 16.0137 189.525C15.7012 189.975 15.4668 190.518 15.3105 191.156C15.1608 191.794 15.0859 192.514 15.0859 193.314V194.438C15.0859 195.258 15.1803 195.99 15.3691 196.635C15.5645 197.279 15.8411 197.829 16.1992 198.285C16.5573 198.734 16.9837 199.076 17.4785 199.311C17.9798 199.545 18.5332 199.662 19.1387 199.662C19.8092 199.662 20.3529 199.607 20.7695 199.496C21.1862 199.379 21.5117 199.242 21.7461 199.086C21.9805 198.923 22.1595 198.77 22.2832 198.627V195.443H18.9922V193.92H24.1582ZM31.3945 201.195C30.6589 201.195 29.9915 201.072 29.3926 200.824C28.8001 200.57 28.2891 200.215 27.8594 199.76C27.4362 199.304 27.1107 198.764 26.8828 198.139C26.6549 197.514 26.541 196.83 26.541 196.088V195.678C26.541 194.818 26.668 194.053 26.9219 193.383C27.1758 192.706 27.5208 192.133 27.957 191.664C28.3932 191.195 28.888 190.84 29.4414 190.6C29.9948 190.359 30.5677 190.238 31.1602 190.238C31.9154 190.238 32.5664 190.368 33.1133 190.629C33.6667 190.889 34.1191 191.254 34.4707 191.723C34.8223 192.185 35.0827 192.732 35.252 193.363C35.4212 193.988 35.5059 194.672 35.5059 195.414V196.225H27.6152V194.75H33.6992V194.613C33.6732 194.145 33.5755 193.689 33.4062 193.246C33.2435 192.803 32.9831 192.439 32.625 192.152C32.2669 191.866 31.7786 191.723 31.1602 191.723C30.75 191.723 30.3724 191.811 30.0273 191.986C29.6823 192.156 29.3861 192.41 29.1387 192.748C28.8913 193.087 28.6992 193.5 28.5625 193.988C28.4258 194.477 28.3574 195.04 28.3574 195.678V196.088C28.3574 196.589 28.4258 197.061 28.5625 197.504C28.7057 197.94 28.9108 198.324 29.1777 198.656C29.4512 198.988 29.7799 199.249 30.1641 199.438C30.5547 199.626 30.9974 199.721 31.4922 199.721C32.1302 199.721 32.6706 199.59 33.1133 199.33C33.556 199.07 33.9434 198.721 34.2754 198.285L35.3691 199.154C35.1413 199.499 34.8516 199.828 34.5 200.141C34.1484 200.453 33.7155 200.707 33.2012 200.902C32.6934 201.098 32.0911 201.195 31.3945 201.195ZM39.4219 192.689V201H37.6152V190.434H39.3242L39.4219 192.689ZM38.9922 195.316L38.2402 195.287C38.2467 194.564 38.3542 193.897 38.5625 193.285C38.7708 192.667 39.0638 192.13 39.4414 191.674C39.819 191.218 40.2682 190.867 40.7891 190.619C41.3164 190.365 41.8991 190.238 42.5371 190.238C43.0579 190.238 43.5267 190.31 43.9434 190.453C44.36 190.59 44.7148 190.811 45.0078 191.117C45.3073 191.423 45.5352 191.82 45.6914 192.309C45.8477 192.79 45.9258 193.38 45.9258 194.076V201H44.1094V194.057C44.1094 193.503 44.028 193.061 43.8652 192.729C43.7025 192.39 43.4648 192.146 43.1523 191.996C42.8398 191.84 42.4557 191.762 42 191.762C41.5508 191.762 41.1406 191.856 40.7695 192.045C40.4049 192.234 40.0892 192.494 39.8223 192.826C39.5618 193.158 39.3568 193.539 39.207 193.969C39.0638 194.392 38.9922 194.841 38.9922 195.316ZM55.3301 198.949V186H57.1465V201H55.4863L55.3301 198.949ZM48.2207 195.834V195.629C48.2207 194.822 48.3184 194.089 48.5137 193.432C48.7155 192.768 48.9987 192.198 49.3633 191.723C49.7344 191.247 50.1738 190.883 50.6816 190.629C51.196 190.368 51.7689 190.238 52.4004 190.238C53.0645 190.238 53.6439 190.355 54.1387 190.59C54.64 190.818 55.0632 191.153 55.4082 191.596C55.7598 192.032 56.0365 192.559 56.2383 193.178C56.4401 193.796 56.5801 194.496 56.6582 195.277V196.176C56.5866 196.951 56.4466 197.647 56.2383 198.266C56.0365 198.884 55.7598 199.411 55.4082 199.848C55.0632 200.284 54.64 200.619 54.1387 200.854C53.6374 201.081 53.0514 201.195 52.3809 201.195C51.7624 201.195 51.196 201.062 50.6816 200.795C50.1738 200.528 49.7344 200.154 49.3633 199.672C48.9987 199.19 48.7155 198.624 48.5137 197.973C48.3184 197.315 48.2207 196.602 48.2207 195.834ZM50.0371 195.629V195.834C50.0371 196.361 50.0892 196.856 50.1934 197.318C50.304 197.781 50.4733 198.188 50.7012 198.539C50.929 198.891 51.2188 199.167 51.5703 199.369C51.9219 199.564 52.3418 199.662 52.8301 199.662C53.429 199.662 53.9206 199.535 54.3047 199.281C54.6953 199.027 55.0078 198.692 55.2422 198.275C55.4766 197.859 55.6589 197.406 55.7891 196.918V194.564C55.7109 194.206 55.597 193.861 55.4473 193.529C55.304 193.191 55.1152 192.891 54.8809 192.631C54.653 192.364 54.3698 192.152 54.0312 191.996C53.6992 191.84 53.3053 191.762 52.8496 191.762C52.3548 191.762 51.9284 191.866 51.5703 192.074C51.2188 192.276 50.929 192.556 50.7012 192.914C50.4733 193.266 50.304 193.676 50.1934 194.145C50.0892 194.607 50.0371 195.102 50.0371 195.629ZM64.3438 201.195C63.6081 201.195 62.9408 201.072 62.3418 200.824C61.7493 200.57 61.2383 200.215 60.8086 199.76C60.3854 199.304 60.0599 198.764 59.832 198.139C59.6042 197.514 59.4902 196.83 59.4902 196.088V195.678C59.4902 194.818 59.6172 194.053 59.8711 193.383C60.125 192.706 60.4701 192.133 60.9062 191.664C61.3424 191.195 61.8372 190.84 62.3906 190.6C62.944 190.359 63.5169 190.238 64.1094 190.238C64.8646 190.238 65.5156 190.368 66.0625 190.629C66.6159 190.889 67.0684 191.254 67.4199 191.723C67.7715 192.185 68.0319 192.732 68.2012 193.363C68.3704 193.988 68.4551 194.672 68.4551 195.414V196.225H60.5645V194.75H66.6484V194.613C66.6224 194.145 66.5247 193.689 66.3555 193.246C66.1927 192.803 65.9323 192.439 65.5742 192.152C65.2161 191.866 64.7279 191.723 64.1094 191.723C63.6992 191.723 63.3216 191.811 62.9766 191.986C62.6315 192.156 62.3353 192.41 62.0879 192.748C61.8405 193.087 61.6484 193.5 61.5117 193.988C61.375 194.477 61.3066 195.04 61.3066 195.678V196.088C61.3066 196.589 61.375 197.061 61.5117 197.504C61.6549 197.94 61.86 198.324 62.127 198.656C62.4004 198.988 62.7292 199.249 63.1133 199.438C63.5039 199.626 63.9466 199.721 64.4414 199.721C65.0794 199.721 65.6198 199.59 66.0625 199.33C66.5052 199.07 66.8926 198.721 67.2246 198.285L68.3184 199.154C68.0905 199.499 67.8008 199.828 67.4492 200.141C67.0977 200.453 66.6647 200.707 66.1504 200.902C65.6426 201.098 65.0404 201.195 64.3438 201.195ZM72.3711 192.094V201H70.5645V190.434H72.3223L72.3711 192.094ZM75.6719 190.375L75.6621 192.055C75.5124 192.022 75.3691 192.003 75.2324 191.996C75.1022 191.983 74.9525 191.977 74.7832 191.977C74.3665 191.977 73.9987 192.042 73.6797 192.172C73.3607 192.302 73.0905 192.484 72.8691 192.719C72.6478 192.953 72.472 193.233 72.3418 193.559C72.2181 193.878 72.1367 194.229 72.0977 194.613L71.5898 194.906C71.5898 194.268 71.6517 193.669 71.7754 193.109C71.9056 192.549 72.1042 192.055 72.3711 191.625C72.638 191.189 72.9766 190.85 73.3867 190.609C73.8034 190.362 74.2982 190.238 74.8711 190.238C75.0013 190.238 75.151 190.255 75.3203 190.287C75.4896 190.313 75.6068 190.342 75.6719 190.375ZM77.2637 200.043C77.2637 199.737 77.3581 199.48 77.5469 199.271C77.7422 199.057 78.0221 198.949 78.3867 198.949C78.7513 198.949 79.028 199.057 79.2168 199.271C79.4121 199.48 79.5098 199.737 79.5098 200.043C79.5098 200.342 79.4121 200.596 79.2168 200.805C79.028 201.013 78.7513 201.117 78.3867 201.117C78.0221 201.117 77.7422 201.013 77.5469 200.805C77.3581 200.596 77.2637 200.342 77.2637 200.043ZM77.2734 191.42C77.2734 191.114 77.3678 190.857 77.5566 190.648C77.752 190.434 78.0319 190.326 78.3965 190.326C78.7611 190.326 79.0378 190.434 79.2266 190.648C79.4219 190.857 79.5195 191.114 79.5195 191.42C79.5195 191.719 79.4219 191.973 79.2266 192.182C79.0378 192.39 78.7611 192.494 78.3965 192.494C78.0319 192.494 77.752 192.39 77.5566 192.182C77.3678 191.973 77.2734 191.719 77.2734 191.42Z" fill="#332317"/>
</g>
<g clip-path="url(#clip3_19_404)">
<g clip-path="url(#clip4_19_404)">
<path d="M110.055 90.6016H111.086C111.591 90.6016 112.008 90.5182 112.336 90.3516C112.669 90.1797 112.917 89.9479 113.078 89.6562C113.245 89.3594 113.328 89.026 113.328 88.6562C113.328 88.2188 113.255 87.8516 113.109 87.5547C112.964 87.2578 112.745 87.0339 112.453 86.8828C112.161 86.7318 111.792 86.6562 111.344 86.6562C110.938 86.6562 110.578 86.737 110.266 86.8984C109.958 87.0547 109.716 87.2786 109.539 87.5703C109.367 87.862 109.281 88.2057 109.281 88.6016H107.836C107.836 88.0234 107.982 87.4974 108.273 87.0234C108.565 86.5495 108.974 86.1719 109.5 85.8906C110.031 85.6094 110.646 85.4688 111.344 85.4688C112.031 85.4688 112.633 85.5911 113.148 85.8359C113.664 86.0755 114.065 86.4349 114.352 86.9141C114.638 87.388 114.781 87.9792 114.781 88.6875C114.781 88.974 114.714 89.2812 114.578 89.6094C114.448 89.9323 114.242 90.2344 113.961 90.5156C113.685 90.7969 113.326 91.0286 112.883 91.2109C112.44 91.388 111.909 91.4766 111.289 91.4766H110.055V90.6016ZM110.055 91.7891V90.9219H111.289C112.013 90.9219 112.612 91.0078 113.086 91.1797C113.56 91.3516 113.932 91.5807 114.203 91.8672C114.479 92.1536 114.672 92.4688 114.781 92.8125C114.896 93.151 114.953 93.4896 114.953 93.8281C114.953 94.3594 114.862 94.8307 114.68 95.2422C114.503 95.6536 114.25 96.0026 113.922 96.2891C113.599 96.5755 113.219 96.7917 112.781 96.9375C112.344 97.0833 111.867 97.1562 111.352 97.1562C110.857 97.1562 110.391 97.0859 109.953 96.9453C109.521 96.8047 109.138 96.6016 108.805 96.3359C108.471 96.0651 108.211 95.7344 108.023 95.3438C107.836 94.9479 107.742 94.4974 107.742 93.9922H109.188C109.188 94.388 109.273 94.7344 109.445 95.0312C109.622 95.3281 109.872 95.5599 110.195 95.7266C110.523 95.888 110.909 95.9688 111.352 95.9688C111.794 95.9688 112.174 95.8932 112.492 95.7422C112.815 95.5859 113.062 95.3516 113.234 95.0391C113.411 94.7266 113.5 94.3333 113.5 93.8594C113.5 93.3854 113.401 92.9974 113.203 92.6953C113.005 92.388 112.724 92.1615 112.359 92.0156C112 91.8646 111.576 91.7891 111.086 91.7891H110.055ZM118.414 95.2812V96.4453C118.414 96.9193 118.294 97.4193 118.055 97.9453C117.815 98.4766 117.479 98.9193 117.047 99.2734L116.227 98.7031C116.393 98.474 116.534 98.2396 116.648 98C116.763 97.7656 116.849 97.5208 116.906 97.2656C116.969 97.0156 117 96.75 117 96.4688V95.2812H118.414ZM121.93 91.5859L120.773 91.2891L121.344 85.625H127.18V86.9609H122.57L122.227 90.0547C122.435 89.9349 122.698 89.8229 123.016 89.7188C123.339 89.6146 123.708 89.5625 124.125 89.5625C124.651 89.5625 125.122 89.6536 125.539 89.8359C125.956 90.013 126.31 90.2682 126.602 90.6016C126.898 90.9349 127.125 91.3359 127.281 91.8047C127.438 92.2734 127.516 92.7969 127.516 93.375C127.516 93.9219 127.44 94.4245 127.289 94.8828C127.143 95.3411 126.922 95.7422 126.625 96.0859C126.328 96.4245 125.953 96.6875 125.5 96.875C125.052 97.0625 124.523 97.1562 123.914 97.1562C123.456 97.1562 123.021 97.0938 122.609 96.9688C122.203 96.8385 121.839 96.6432 121.516 96.3828C121.198 96.1172 120.938 95.7891 120.734 95.3984C120.536 95.0026 120.411 94.5391 120.359 94.0078H121.734C121.797 94.4349 121.922 94.7943 122.109 95.0859C122.297 95.3776 122.542 95.599 122.844 95.75C123.151 95.8958 123.508 95.9688 123.914 95.9688C124.258 95.9688 124.562 95.9089 124.828 95.7891C125.094 95.6693 125.318 95.4974 125.5 95.2734C125.682 95.0495 125.82 94.7786 125.914 94.4609C126.013 94.1432 126.062 93.7865 126.062 93.3906C126.062 93.0312 126.013 92.6979 125.914 92.3906C125.815 92.0833 125.667 91.8151 125.469 91.5859C125.276 91.3568 125.039 91.1797 124.758 91.0547C124.477 90.9245 124.154 90.8594 123.789 90.8594C123.305 90.8594 122.938 90.9245 122.688 91.0547C122.443 91.1849 122.19 91.362 121.93 91.5859ZM134.953 85.625V97H133.445V85.625H134.953ZM141.82 85.625L137.094 90.9297L134.438 93.6875L134.188 92.0781L136.188 89.875L140.008 85.625H141.82ZM140.367 97L136.156 91.4531L137.055 90.2578L142.164 97H140.367ZM151.648 91.3359V95.5C151.508 95.7083 151.284 95.9427 150.977 96.2031C150.669 96.4583 150.245 96.6823 149.703 96.875C149.167 97.0625 148.474 97.1562 147.625 97.1562C146.932 97.1562 146.294 97.0365 145.711 96.7969C145.133 96.5521 144.63 96.1979 144.203 95.7344C143.781 95.2656 143.453 94.6979 143.219 94.0312C142.99 93.3594 142.875 92.599 142.875 91.75V90.8672C142.875 90.0182 142.974 89.2604 143.172 88.5938C143.375 87.9271 143.672 87.362 144.062 86.8984C144.453 86.4297 144.932 86.0755 145.5 85.8359C146.068 85.5911 146.719 85.4688 147.453 85.4688C148.323 85.4688 149.049 85.6198 149.633 85.9219C150.221 86.2188 150.68 86.6302 151.008 87.1562C151.341 87.6823 151.555 88.2812 151.648 88.9531H150.141C150.073 88.5417 149.938 88.1667 149.734 87.8281C149.536 87.4896 149.253 87.2188 148.883 87.0156C148.513 86.8073 148.036 86.7031 147.453 86.7031C146.927 86.7031 146.471 86.7995 146.086 86.9922C145.701 87.1849 145.383 87.4609 145.133 87.8203C144.883 88.1797 144.695 88.6146 144.57 89.125C144.451 89.6354 144.391 90.2109 144.391 90.8516V91.75C144.391 92.4062 144.466 92.9922 144.617 93.5078C144.773 94.0234 144.995 94.4635 145.281 94.8281C145.568 95.1875 145.909 95.4609 146.305 95.6484C146.706 95.8359 147.148 95.9297 147.633 95.9297C148.169 95.9297 148.604 95.8854 148.938 95.7969C149.271 95.7031 149.531 95.5938 149.719 95.4688C149.906 95.3385 150.049 95.2161 150.148 95.1016V92.5547H147.516V91.3359H151.648Z" fill="#332317"/>
<path d="M170.926 86.6142C170.824 86.3699 170.63 86.1757 170.386 86.0742C170.266 86.023 170.136 85.9958 170.006 85.9942H164.006C163.741 85.9942 163.486 86.0996 163.299 86.2871C163.111 86.4746 163.006 86.729 163.006 86.9942C163.006 87.2594 163.111 87.5138 163.299 87.7013C163.486 87.8888 163.741 87.9942 164.006 87.9942H167.596L159.296 96.2842C159.202 96.3772 159.128 96.4878 159.077 96.6096C159.026 96.7315 159 96.8622 159 96.9942C159 97.1262 159.026 97.2569 159.077 97.3788C159.128 97.5006 159.202 97.6112 159.296 97.7042C159.389 97.7979 159.499 97.8723 159.621 97.9231C159.743 97.9739 159.874 98 160.006 98C160.138 98 160.269 97.9739 160.39 97.9231C160.512 97.8723 160.623 97.7979 160.716 97.7042L169.006 89.4042V92.9942C169.006 93.2594 169.111 93.5138 169.299 93.7013C169.486 93.8888 169.741 93.9942 170.006 93.9942C170.271 93.9942 170.525 93.8888 170.713 93.7013C170.9 93.5138 171.006 93.2594 171.006 92.9942V86.9942C171.004 86.8635 170.977 86.7344 170.926 86.6142Z" fill="#49970C"/>
</g>
<path d="M115.086 124.406V126.141C115.086 127.073 115.003 127.859 114.836 128.5C114.669 129.141 114.43 129.656 114.117 130.047C113.805 130.438 113.427 130.721 112.984 130.898C112.547 131.07 112.052 131.156 111.5 131.156C111.062 131.156 110.659 131.102 110.289 130.992C109.919 130.883 109.586 130.708 109.289 130.469C108.997 130.224 108.747 129.906 108.539 129.516C108.331 129.125 108.172 128.651 108.062 128.094C107.953 127.536 107.898 126.885 107.898 126.141V124.406C107.898 123.474 107.982 122.693 108.148 122.062C108.32 121.432 108.562 120.927 108.875 120.547C109.188 120.161 109.562 119.885 110 119.719C110.443 119.552 110.938 119.469 111.484 119.469C111.927 119.469 112.333 119.523 112.703 119.633C113.078 119.737 113.411 119.906 113.703 120.141C113.995 120.37 114.242 120.677 114.445 121.062C114.654 121.443 114.812 121.909 114.922 122.461C115.031 123.013 115.086 123.661 115.086 124.406ZM113.633 126.375V124.164C113.633 123.654 113.602 123.206 113.539 122.82C113.482 122.43 113.396 122.096 113.281 121.82C113.167 121.544 113.021 121.32 112.844 121.148C112.672 120.977 112.471 120.852 112.242 120.773C112.018 120.69 111.766 120.648 111.484 120.648C111.141 120.648 110.836 120.714 110.57 120.844C110.305 120.969 110.081 121.169 109.898 121.445C109.721 121.721 109.586 122.083 109.492 122.531C109.398 122.979 109.352 123.523 109.352 124.164V126.375C109.352 126.885 109.38 127.336 109.438 127.727C109.5 128.117 109.591 128.456 109.711 128.742C109.831 129.023 109.977 129.255 110.148 129.438C110.32 129.62 110.518 129.755 110.742 129.844C110.971 129.927 111.224 129.969 111.5 129.969C111.854 129.969 112.164 129.901 112.43 129.766C112.695 129.63 112.917 129.419 113.094 129.133C113.276 128.841 113.411 128.469 113.5 128.016C113.589 127.557 113.633 127.01 113.633 126.375ZM124.117 127.922C124.117 128.615 123.956 129.203 123.633 129.688C123.315 130.167 122.883 130.531 122.336 130.781C121.794 131.031 121.182 131.156 120.5 131.156C119.818 131.156 119.203 131.031 118.656 130.781C118.109 130.531 117.677 130.167 117.359 129.688C117.042 129.203 116.883 128.615 116.883 127.922C116.883 127.469 116.969 127.055 117.141 126.68C117.318 126.299 117.565 125.969 117.883 125.688C118.206 125.406 118.586 125.19 119.023 125.039C119.466 124.883 119.953 124.805 120.484 124.805C121.182 124.805 121.805 124.94 122.352 125.211C122.898 125.477 123.328 125.844 123.641 126.312C123.958 126.781 124.117 127.318 124.117 127.922ZM122.664 127.891C122.664 127.469 122.573 127.096 122.391 126.773C122.208 126.445 121.953 126.19 121.625 126.008C121.297 125.826 120.917 125.734 120.484 125.734C120.042 125.734 119.659 125.826 119.336 126.008C119.018 126.19 118.771 126.445 118.594 126.773C118.417 127.096 118.328 127.469 118.328 127.891C118.328 128.328 118.414 128.703 118.586 129.016C118.763 129.323 119.013 129.56 119.336 129.727C119.664 129.888 120.052 129.969 120.5 129.969C120.948 129.969 121.333 129.888 121.656 129.727C121.979 129.56 122.227 129.323 122.398 129.016C122.576 128.703 122.664 128.328 122.664 127.891ZM123.852 122.586C123.852 123.138 123.706 123.635 123.414 124.078C123.122 124.521 122.724 124.87 122.219 125.125C121.714 125.38 121.141 125.508 120.5 125.508C119.849 125.508 119.268 125.38 118.758 125.125C118.253 124.87 117.857 124.521 117.57 124.078C117.284 123.635 117.141 123.138 117.141 122.586C117.141 121.924 117.284 121.362 117.57 120.898C117.862 120.435 118.26 120.081 118.766 119.836C119.271 119.591 119.846 119.469 120.492 119.469C121.143 119.469 121.721 119.591 122.227 119.836C122.732 120.081 123.128 120.435 123.414 120.898C123.706 121.362 123.852 121.924 123.852 122.586ZM122.406 122.609C122.406 122.229 122.326 121.893 122.164 121.602C122.003 121.31 121.779 121.081 121.492 120.914C121.206 120.742 120.872 120.656 120.492 120.656C120.112 120.656 119.779 120.737 119.492 120.898C119.211 121.055 118.99 121.279 118.828 121.57C118.672 121.862 118.594 122.208 118.594 122.609C118.594 123 118.672 123.341 118.828 123.633C118.99 123.924 119.214 124.151 119.5 124.312C119.786 124.474 120.12 124.555 120.5 124.555C120.88 124.555 121.211 124.474 121.492 124.312C121.779 124.151 122.003 123.924 122.164 123.633C122.326 123.341 122.406 123 122.406 122.609ZM126.125 130.234C126.125 129.99 126.201 129.784 126.352 129.617C126.508 129.445 126.732 129.359 127.023 129.359C127.315 129.359 127.536 129.445 127.688 129.617C127.844 129.784 127.922 129.99 127.922 130.234C127.922 130.474 127.844 130.677 127.688 130.844C127.536 131.01 127.315 131.094 127.023 131.094C126.732 131.094 126.508 131.01 126.352 130.844C126.201 130.677 126.125 130.474 126.125 130.234ZM137.305 124.406V126.141C137.305 127.073 137.221 127.859 137.055 128.5C136.888 129.141 136.648 129.656 136.336 130.047C136.023 130.438 135.646 130.721 135.203 130.898C134.766 131.07 134.271 131.156 133.719 131.156C133.281 131.156 132.878 131.102 132.508 130.992C132.138 130.883 131.805 130.708 131.508 130.469C131.216 130.224 130.966 129.906 130.758 129.516C130.549 129.125 130.391 128.651 130.281 128.094C130.172 127.536 130.117 126.885 130.117 126.141V124.406C130.117 123.474 130.201 122.693 130.367 122.062C130.539 121.432 130.781 120.927 131.094 120.547C131.406 120.161 131.781 119.885 132.219 119.719C132.661 119.552 133.156 119.469 133.703 119.469C134.146 119.469 134.552 119.523 134.922 119.633C135.297 119.737 135.63 119.906 135.922 120.141C136.214 120.37 136.461 120.677 136.664 121.062C136.872 121.443 137.031 121.909 137.141 122.461C137.25 123.013 137.305 123.661 137.305 124.406ZM135.852 126.375V124.164C135.852 123.654 135.82 123.206 135.758 122.82C135.701 122.43 135.615 122.096 135.5 121.82C135.385 121.544 135.24 121.32 135.062 121.148C134.891 120.977 134.69 120.852 134.461 120.773C134.237 120.69 133.984 120.648 133.703 120.648C133.359 120.648 133.055 120.714 132.789 120.844C132.523 120.969 132.299 121.169 132.117 121.445C131.94 121.721 131.805 122.083 131.711 122.531C131.617 122.979 131.57 123.523 131.57 124.164V126.375C131.57 126.885 131.599 127.336 131.656 127.727C131.719 128.117 131.81 128.456 131.93 128.742C132.049 129.023 132.195 129.255 132.367 129.438C132.539 129.62 132.737 129.755 132.961 129.844C133.19 129.927 133.443 129.969 133.719 129.969C134.073 129.969 134.383 129.901 134.648 129.766C134.914 129.63 135.135 129.419 135.312 129.133C135.495 128.841 135.63 128.469 135.719 128.016C135.807 127.557 135.852 127.01 135.852 126.375ZM146.852 127.172V128.359H138.633V127.508L143.727 119.625H144.906L143.641 121.906L140.273 127.172H146.852ZM145.266 119.625V131H143.82V119.625H145.266ZM148.344 130.234C148.344 129.99 148.419 129.784 148.57 129.617C148.727 129.445 148.951 129.359 149.242 129.359C149.534 129.359 149.755 129.445 149.906 129.617C150.062 129.784 150.141 129.99 150.141 130.234C150.141 130.474 150.062 130.677 149.906 130.844C149.755 131.01 149.534 131.094 149.242 131.094C148.951 131.094 148.727 131.01 148.57 130.844C148.419 130.677 148.344 130.474 148.344 130.234ZM159.836 129.812V131H152.391V129.961L156.117 125.812C156.576 125.302 156.93 124.87 157.18 124.516C157.435 124.156 157.612 123.836 157.711 123.555C157.815 123.268 157.867 122.977 157.867 122.68C157.867 122.305 157.789 121.966 157.633 121.664C157.482 121.357 157.258 121.112 156.961 120.93C156.664 120.747 156.305 120.656 155.883 120.656C155.378 120.656 154.956 120.755 154.617 120.953C154.284 121.146 154.034 121.417 153.867 121.766C153.701 122.115 153.617 122.516 153.617 122.969H152.172C152.172 122.328 152.312 121.742 152.594 121.211C152.875 120.68 153.292 120.258 153.844 119.945C154.396 119.628 155.076 119.469 155.883 119.469C156.602 119.469 157.216 119.596 157.727 119.852C158.237 120.102 158.628 120.456 158.898 120.914C159.174 121.367 159.312 121.898 159.312 122.508C159.312 122.841 159.255 123.18 159.141 123.523C159.031 123.862 158.878 124.201 158.68 124.539C158.487 124.878 158.26 125.211 158 125.539C157.745 125.867 157.471 126.19 157.18 126.508L154.133 129.812H159.836ZM168.523 124.406V126.141C168.523 127.073 168.44 127.859 168.273 128.5C168.107 129.141 167.867 129.656 167.555 130.047C167.242 130.438 166.865 130.721 166.422 130.898C165.984 131.07 165.49 131.156 164.938 131.156C164.5 131.156 164.096 131.102 163.727 130.992C163.357 130.883 163.023 130.708 162.727 130.469C162.435 130.224 162.185 129.906 161.977 129.516C161.768 129.125 161.609 128.651 161.5 128.094C161.391 127.536 161.336 126.885 161.336 126.141V124.406C161.336 123.474 161.419 122.693 161.586 122.062C161.758 121.432 162 120.927 162.312 120.547C162.625 120.161 163 119.885 163.438 119.719C163.88 119.552 164.375 119.469 164.922 119.469C165.365 119.469 165.771 119.523 166.141 119.633C166.516 119.737 166.849 119.906 167.141 120.141C167.432 120.37 167.68 120.677 167.883 121.062C168.091 121.443 168.25 121.909 168.359 122.461C168.469 123.013 168.523 123.661 168.523 124.406ZM167.07 126.375V124.164C167.07 123.654 167.039 123.206 166.977 122.82C166.919 122.43 166.833 122.096 166.719 121.82C166.604 121.544 166.458 121.32 166.281 121.148C166.109 120.977 165.909 120.852 165.68 120.773C165.456 120.69 165.203 120.648 164.922 120.648C164.578 120.648 164.273 120.714 164.008 120.844C163.742 120.969 163.518 121.169 163.336 121.445C163.159 121.721 163.023 122.083 162.93 122.531C162.836 122.979 162.789 123.523 162.789 124.164V126.375C162.789 126.885 162.818 127.336 162.875 127.727C162.938 128.117 163.029 128.456 163.148 128.742C163.268 129.023 163.414 129.255 163.586 129.438C163.758 129.62 163.956 129.755 164.18 129.844C164.409 129.927 164.661 129.969 164.938 129.969C165.292 129.969 165.602 129.901 165.867 129.766C166.133 129.63 166.354 129.419 166.531 129.133C166.714 128.841 166.849 128.469 166.938 128.016C167.026 127.557 167.07 127.01 167.07 126.375ZM177.523 124.406V126.141C177.523 127.073 177.44 127.859 177.273 128.5C177.107 129.141 176.867 129.656 176.555 130.047C176.242 130.438 175.865 130.721 175.422 130.898C174.984 131.07 174.49 131.156 173.938 131.156C173.5 131.156 173.096 131.102 172.727 130.992C172.357 130.883 172.023 130.708 171.727 130.469C171.435 130.224 171.185 129.906 170.977 129.516C170.768 129.125 170.609 128.651 170.5 128.094C170.391 127.536 170.336 126.885 170.336 126.141V124.406C170.336 123.474 170.419 122.693 170.586 122.062C170.758 121.432 171 120.927 171.312 120.547C171.625 120.161 172 119.885 172.438 119.719C172.88 119.552 173.375 119.469 173.922 119.469C174.365 119.469 174.771 119.523 175.141 119.633C175.516 119.737 175.849 119.906 176.141 120.141C176.432 120.37 176.68 120.677 176.883 121.062C177.091 121.443 177.25 121.909 177.359 122.461C177.469 123.013 177.523 123.661 177.523 124.406ZM176.07 126.375V124.164C176.07 123.654 176.039 123.206 175.977 122.82C175.919 122.43 175.833 122.096 175.719 121.82C175.604 121.544 175.458 121.32 175.281 121.148C175.109 120.977 174.909 120.852 174.68 120.773C174.456 120.69 174.203 120.648 173.922 120.648C173.578 120.648 173.273 120.714 173.008 120.844C172.742 120.969 172.518 121.169 172.336 121.445C172.159 121.721 172.023 122.083 171.93 122.531C171.836 122.979 171.789 123.523 171.789 124.164V126.375C171.789 126.885 171.818 127.336 171.875 127.727C171.938 128.117 172.029 128.456 172.148 128.742C172.268 129.023 172.414 129.255 172.586 129.438C172.758 129.62 172.956 129.755 173.18 129.844C173.409 129.927 173.661 129.969 173.938 129.969C174.292 129.969 174.602 129.901 174.867 129.766C175.133 129.63 175.354 129.419 175.531 129.133C175.714 128.841 175.849 128.469 175.938 128.016C176.026 127.557 176.07 127.01 176.07 126.375ZM186.523 124.406V126.141C186.523 127.073 186.44 127.859 186.273 128.5C186.107 129.141 185.867 129.656 185.555 130.047C185.242 130.438 184.865 130.721 184.422 130.898C183.984 131.07 183.49 131.156 182.938 131.156C182.5 131.156 182.096 131.102 181.727 130.992C181.357 130.883 181.023 130.708 180.727 130.469C180.435 130.224 180.185 129.906 179.977 129.516C179.768 129.125 179.609 128.651 179.5 128.094C179.391 127.536 179.336 126.885 179.336 126.141V124.406C179.336 123.474 179.419 122.693 179.586 122.062C179.758 121.432 180 120.927 180.312 120.547C180.625 120.161 181 119.885 181.438 119.719C181.88 119.552 182.375 119.469 182.922 119.469C183.365 119.469 183.771 119.523 184.141 119.633C184.516 119.737 184.849 119.906 185.141 120.141C185.432 120.37 185.68 120.677 185.883 121.062C186.091 121.443 186.25 121.909 186.359 122.461C186.469 123.013 186.523 123.661 186.523 124.406ZM185.07 126.375V124.164C185.07 123.654 185.039 123.206 184.977 122.82C184.919 122.43 184.833 122.096 184.719 121.82C184.604 121.544 184.458 121.32 184.281 121.148C184.109 120.977 183.909 120.852 183.68 120.773C183.456 120.69 183.203 120.648 182.922 120.648C182.578 120.648 182.273 120.714 182.008 120.844C181.742 120.969 181.518 121.169 181.336 121.445C181.159 121.721 181.023 122.083 180.93 122.531C180.836 122.979 180.789 123.523 180.789 124.164V126.375C180.789 126.885 180.818 127.336 180.875 127.727C180.938 128.117 181.029 128.456 181.148 128.742C181.268 129.023 181.414 129.255 181.586 129.438C181.758 129.62 181.956 129.755 182.18 129.844C182.409 129.927 182.661 129.969 182.938 129.969C183.292 129.969 183.602 129.901 183.867 129.766C184.133 129.63 184.354 129.419 184.531 129.133C184.714 128.841 184.849 128.469 184.938 128.016C185.026 127.557 185.07 127.01 185.07 126.375Z" fill="#332317"/>
<path d="M115.398 163.812V165H107.953V163.961L111.68 159.812C112.138 159.302 112.492 158.87 112.742 158.516C112.997 158.156 113.174 157.836 113.273 157.555C113.378 157.268 113.43 156.977 113.43 156.68C113.43 156.305 113.352 155.966 113.195 155.664C113.044 155.357 112.82 155.112 112.523 154.93C112.227 154.747 111.867 154.656 111.445 154.656C110.94 154.656 110.518 154.755 110.18 154.953C109.846 155.146 109.596 155.417 109.43 155.766C109.263 156.115 109.18 156.516 109.18 156.969H107.734C107.734 156.328 107.875 155.742 108.156 155.211C108.438 154.68 108.854 154.258 109.406 153.945C109.958 153.628 110.638 153.469 111.445 153.469C112.164 153.469 112.779 153.596 113.289 153.852C113.799 154.102 114.19 154.456 114.461 154.914C114.737 155.367 114.875 155.898 114.875 156.508C114.875 156.841 114.818 157.18 114.703 157.523C114.594 157.862 114.44 158.201 114.242 158.539C114.049 158.878 113.823 159.211 113.562 159.539C113.307 159.867 113.034 160.19 112.742 160.508L109.695 163.812H115.398Z" fill="#332317"/>
<path d="M109.828 187.625V199H108.32V187.625H109.828ZM114.594 192.742V193.977H109.5V192.742H114.594ZM115.367 187.625V188.859H109.5V187.625H115.367ZM120.281 199.156C119.693 199.156 119.159 199.057 118.68 198.859C118.206 198.656 117.797 198.372 117.453 198.008C117.115 197.643 116.854 197.211 116.672 196.711C116.49 196.211 116.398 195.664 116.398 195.07V194.742C116.398 194.055 116.5 193.443 116.703 192.906C116.906 192.365 117.182 191.906 117.531 191.531C117.88 191.156 118.276 190.872 118.719 190.68C119.161 190.487 119.62 190.391 120.094 190.391C120.698 190.391 121.219 190.495 121.656 190.703C122.099 190.911 122.461 191.203 122.742 191.578C123.023 191.948 123.232 192.385 123.367 192.891C123.503 193.391 123.57 193.938 123.57 194.531V195.18H117.258V194H122.125V193.891C122.104 193.516 122.026 193.151 121.891 192.797C121.76 192.443 121.552 192.151 121.266 191.922C120.979 191.693 120.589 191.578 120.094 191.578C119.766 191.578 119.464 191.648 119.188 191.789C118.911 191.924 118.674 192.128 118.477 192.398C118.279 192.669 118.125 193 118.016 193.391C117.906 193.781 117.852 194.232 117.852 194.742V195.07C117.852 195.471 117.906 195.849 118.016 196.203C118.13 196.552 118.294 196.859 118.508 197.125C118.727 197.391 118.99 197.599 119.297 197.75C119.609 197.901 119.964 197.977 120.359 197.977C120.87 197.977 121.302 197.872 121.656 197.664C122.01 197.456 122.32 197.177 122.586 196.828L123.461 197.523C123.279 197.799 123.047 198.062 122.766 198.312C122.484 198.562 122.138 198.766 121.727 198.922C121.32 199.078 120.839 199.156 120.281 199.156ZM126.695 192.227V199H125.242V190.547H126.617L126.695 192.227ZM126.398 194.453L125.727 194.43C125.732 193.852 125.807 193.318 125.953 192.828C126.099 192.333 126.315 191.904 126.602 191.539C126.888 191.174 127.245 190.893 127.672 190.695C128.099 190.492 128.594 190.391 129.156 190.391C129.552 190.391 129.917 190.448 130.25 190.562C130.583 190.672 130.872 190.846 131.117 191.086C131.362 191.326 131.552 191.633 131.688 192.008C131.823 192.383 131.891 192.836 131.891 193.367V199H130.445V193.438C130.445 192.995 130.37 192.641 130.219 192.375C130.073 192.109 129.865 191.917 129.594 191.797C129.323 191.672 129.005 191.609 128.641 191.609C128.214 191.609 127.857 191.685 127.57 191.836C127.284 191.987 127.055 192.195 126.883 192.461C126.711 192.727 126.586 193.031 126.508 193.375C126.435 193.714 126.398 194.073 126.398 194.453ZM131.875 193.656L130.906 193.953C130.911 193.49 130.987 193.044 131.133 192.617C131.284 192.19 131.5 191.81 131.781 191.477C132.068 191.143 132.419 190.88 132.836 190.688C133.253 190.49 133.729 190.391 134.266 190.391C134.719 190.391 135.12 190.451 135.469 190.57C135.823 190.69 136.12 190.875 136.359 191.125C136.604 191.37 136.789 191.685 136.914 192.07C137.039 192.456 137.102 192.914 137.102 193.445V199H135.648V193.43C135.648 192.956 135.573 192.589 135.422 192.328C135.276 192.062 135.068 191.878 134.797 191.773C134.531 191.664 134.214 191.609 133.844 191.609C133.526 191.609 133.245 191.664 133 191.773C132.755 191.883 132.549 192.034 132.383 192.227C132.216 192.414 132.089 192.63 132 192.875C131.917 193.12 131.875 193.38 131.875 193.656ZM144.273 197.555V193.203C144.273 192.87 144.206 192.581 144.07 192.336C143.94 192.086 143.742 191.893 143.477 191.758C143.211 191.622 142.883 191.555 142.492 191.555C142.128 191.555 141.807 191.617 141.531 191.742C141.26 191.867 141.047 192.031 140.891 192.234C140.74 192.438 140.664 192.656 140.664 192.891H139.219C139.219 192.589 139.297 192.289 139.453 191.992C139.609 191.695 139.833 191.427 140.125 191.188C140.422 190.943 140.776 190.75 141.188 190.609C141.604 190.464 142.068 190.391 142.578 190.391C143.193 190.391 143.734 190.495 144.203 190.703C144.677 190.911 145.047 191.227 145.312 191.648C145.583 192.065 145.719 192.589 145.719 193.219V197.156C145.719 197.438 145.742 197.737 145.789 198.055C145.841 198.372 145.917 198.646 146.016 198.875V199H144.508C144.435 198.833 144.378 198.612 144.336 198.336C144.294 198.055 144.273 197.794 144.273 197.555ZM144.523 193.875L144.539 194.891H143.078C142.667 194.891 142.299 194.924 141.977 194.992C141.654 195.055 141.383 195.151 141.164 195.281C140.945 195.411 140.779 195.576 140.664 195.773C140.549 195.966 140.492 196.193 140.492 196.453C140.492 196.719 140.552 196.961 140.672 197.18C140.792 197.398 140.971 197.573 141.211 197.703C141.456 197.828 141.755 197.891 142.109 197.891C142.552 197.891 142.943 197.797 143.281 197.609C143.62 197.422 143.888 197.193 144.086 196.922C144.289 196.651 144.398 196.388 144.414 196.133L145.031 196.828C144.995 197.047 144.896 197.289 144.734 197.555C144.573 197.82 144.357 198.076 144.086 198.32C143.82 198.56 143.503 198.76 143.133 198.922C142.768 199.078 142.357 199.156 141.898 199.156C141.326 199.156 140.823 199.044 140.391 198.82C139.964 198.596 139.63 198.297 139.391 197.922C139.156 197.542 139.039 197.117 139.039 196.648C139.039 196.195 139.128 195.797 139.305 195.453C139.482 195.104 139.737 194.815 140.07 194.586C140.404 194.352 140.805 194.174 141.273 194.055C141.742 193.935 142.266 193.875 142.844 193.875H144.523ZM149.562 187V199H148.109V187H149.562ZM155.391 199.156C154.802 199.156 154.268 199.057 153.789 198.859C153.315 198.656 152.906 198.372 152.562 198.008C152.224 197.643 151.964 197.211 151.781 196.711C151.599 196.211 151.508 195.664 151.508 195.07V194.742C151.508 194.055 151.609 193.443 151.812 192.906C152.016 192.365 152.292 191.906 152.641 191.531C152.99 191.156 153.385 190.872 153.828 190.68C154.271 190.487 154.729 190.391 155.203 190.391C155.807 190.391 156.328 190.495 156.766 190.703C157.208 190.911 157.57 191.203 157.852 191.578C158.133 191.948 158.341 192.385 158.477 192.891C158.612 193.391 158.68 193.938 158.68 194.531V195.18H152.367V194H157.234V193.891C157.214 193.516 157.135 193.151 157 192.797C156.87 192.443 156.661 192.151 156.375 191.922C156.089 191.693 155.698 191.578 155.203 191.578C154.875 191.578 154.573 191.648 154.297 191.789C154.021 191.924 153.784 192.128 153.586 192.398C153.388 192.669 153.234 193 153.125 193.391C153.016 193.781 152.961 194.232 152.961 194.742V195.07C152.961 195.471 153.016 195.849 153.125 196.203C153.24 196.552 153.404 196.859 153.617 197.125C153.836 197.391 154.099 197.599 154.406 197.75C154.719 197.901 155.073 197.977 155.469 197.977C155.979 197.977 156.411 197.872 156.766 197.664C157.12 197.456 157.43 197.177 157.695 196.828L158.57 197.523C158.388 197.799 158.156 198.062 157.875 198.312C157.594 198.562 157.247 198.766 156.836 198.922C156.43 199.078 155.948 199.156 155.391 199.156Z" fill="#332317"/>
</g>
</g>
<rect y="682" width="428" height="80" fill="#F4E8DE"/>
<line y1="681.5" x2="428" y2="681.5" stroke="#A77C5D"/>
<path d="M278.562 748.137V749.057H273.945V748.137H278.562ZM274.121 744.469V753H272.99V744.469H274.121ZM279.547 744.469V753H278.422V744.469H279.547ZM282.57 746.66V753H281.48V746.66H282.57ZM281.398 744.979C281.398 744.803 281.451 744.654 281.557 744.533C281.666 744.412 281.826 744.352 282.037 744.352C282.244 744.352 282.402 744.412 282.512 744.533C282.625 744.654 282.682 744.803 282.682 744.979C282.682 745.146 282.625 745.291 282.512 745.412C282.402 745.529 282.244 745.588 282.037 745.588C281.826 745.588 281.666 745.529 281.557 745.412C281.451 745.291 281.398 745.146 281.398 744.979ZM288.002 751.318C288.002 751.162 287.967 751.018 287.896 750.885C287.83 750.748 287.691 750.625 287.48 750.516C287.273 750.402 286.961 750.305 286.543 750.223C286.191 750.148 285.873 750.061 285.588 749.959C285.307 749.857 285.066 749.734 284.867 749.59C284.672 749.445 284.521 749.275 284.416 749.08C284.311 748.885 284.258 748.656 284.258 748.395C284.258 748.145 284.312 747.908 284.422 747.686C284.535 747.463 284.693 747.266 284.896 747.094C285.104 746.922 285.352 746.787 285.641 746.689C285.93 746.592 286.252 746.543 286.607 746.543C287.115 746.543 287.549 746.633 287.908 746.812C288.268 746.992 288.543 747.232 288.734 747.533C288.926 747.83 289.021 748.16 289.021 748.523H287.938C287.938 748.348 287.885 748.178 287.779 748.014C287.678 747.846 287.527 747.707 287.328 747.598C287.133 747.488 286.893 747.434 286.607 747.434C286.307 747.434 286.062 747.48 285.875 747.574C285.691 747.664 285.557 747.779 285.471 747.92C285.389 748.061 285.348 748.209 285.348 748.365C285.348 748.482 285.367 748.588 285.406 748.682C285.449 748.771 285.523 748.855 285.629 748.934C285.734 749.008 285.883 749.078 286.074 749.145C286.266 749.211 286.51 749.277 286.807 749.344C287.326 749.461 287.754 749.602 288.09 749.766C288.426 749.93 288.676 750.131 288.84 750.369C289.004 750.607 289.086 750.896 289.086 751.236C289.086 751.514 289.027 751.768 288.91 751.998C288.797 752.229 288.631 752.428 288.412 752.596C288.197 752.76 287.939 752.889 287.639 752.982C287.342 753.072 287.008 753.117 286.637 753.117C286.078 753.117 285.605 753.018 285.219 752.818C284.832 752.619 284.539 752.361 284.34 752.045C284.141 751.729 284.041 751.395 284.041 751.043H285.131C285.146 751.34 285.232 751.576 285.389 751.752C285.545 751.924 285.736 752.047 285.963 752.121C286.189 752.191 286.414 752.227 286.637 752.227C286.934 752.227 287.182 752.188 287.381 752.109C287.584 752.031 287.738 751.924 287.844 751.787C287.949 751.65 288.002 751.494 288.002 751.318ZM293.164 746.66V747.492H289.736V746.66H293.164ZM290.896 745.119H291.98V751.43C291.98 751.645 292.014 751.807 292.08 751.916C292.146 752.025 292.232 752.098 292.338 752.133C292.443 752.168 292.557 752.186 292.678 752.186C292.768 752.186 292.861 752.178 292.959 752.162C293.061 752.143 293.137 752.127 293.188 752.115L293.193 753C293.107 753.027 292.994 753.053 292.854 753.076C292.717 753.104 292.551 753.117 292.355 753.117C292.09 753.117 291.846 753.064 291.623 752.959C291.4 752.854 291.223 752.678 291.09 752.432C290.961 752.182 290.896 751.846 290.896 751.424V745.119ZM294.031 749.9V749.766C294.031 749.309 294.098 748.885 294.23 748.494C294.363 748.1 294.555 747.758 294.805 747.469C295.055 747.176 295.357 746.949 295.713 746.789C296.068 746.625 296.467 746.543 296.908 746.543C297.354 746.543 297.754 746.625 298.109 746.789C298.469 746.949 298.773 747.176 299.023 747.469C299.277 747.758 299.471 748.1 299.604 748.494C299.736 748.885 299.803 749.309 299.803 749.766V749.9C299.803 750.357 299.736 750.781 299.604 751.172C299.471 751.562 299.277 751.904 299.023 752.197C298.773 752.486 298.471 752.713 298.115 752.877C297.764 753.037 297.365 753.117 296.92 753.117C296.475 753.117 296.074 753.037 295.719 752.877C295.363 752.713 295.059 752.486 294.805 752.197C294.555 751.904 294.363 751.562 294.23 751.172C294.098 750.781 294.031 750.357 294.031 749.9ZM295.115 749.766V749.9C295.115 750.217 295.152 750.516 295.227 750.797C295.301 751.074 295.412 751.32 295.561 751.535C295.713 751.75 295.902 751.92 296.129 752.045C296.355 752.166 296.619 752.227 296.92 752.227C297.217 752.227 297.477 752.166 297.699 752.045C297.926 751.92 298.113 751.75 298.262 751.535C298.41 751.32 298.521 751.074 298.596 750.797C298.674 750.516 298.713 750.217 298.713 749.9V749.766C298.713 749.453 298.674 749.158 298.596 748.881C298.521 748.6 298.408 748.352 298.256 748.137C298.107 747.918 297.92 747.746 297.693 747.621C297.471 747.496 297.209 747.434 296.908 747.434C296.611 747.434 296.35 747.496 296.123 747.621C295.9 747.746 295.713 747.918 295.561 748.137C295.412 748.352 295.301 748.6 295.227 748.881C295.152 749.158 295.115 749.453 295.115 749.766ZM302.246 747.656V753H301.162V746.66H302.217L302.246 747.656ZM304.227 746.625L304.221 747.633C304.131 747.613 304.045 747.602 303.963 747.598C303.885 747.59 303.795 747.586 303.693 747.586C303.443 747.586 303.223 747.625 303.031 747.703C302.84 747.781 302.678 747.891 302.545 748.031C302.412 748.172 302.307 748.34 302.229 748.535C302.154 748.727 302.105 748.938 302.082 749.168L301.777 749.344C301.777 748.961 301.814 748.602 301.889 748.266C301.967 747.93 302.086 747.633 302.246 747.375C302.406 747.113 302.609 746.91 302.855 746.766C303.105 746.617 303.402 746.543 303.746 746.543C303.824 746.543 303.914 746.553 304.016 746.572C304.117 746.588 304.188 746.605 304.227 746.625ZM307.115 752.344L308.879 746.66H310.039L307.496 753.979C307.438 754.135 307.359 754.303 307.262 754.482C307.168 754.666 307.047 754.84 306.898 755.004C306.75 755.168 306.57 755.301 306.359 755.402C306.152 755.508 305.904 755.561 305.615 755.561C305.529 755.561 305.42 755.549 305.287 755.525C305.154 755.502 305.061 755.482 305.006 755.467L305 754.588C305.031 754.592 305.08 754.596 305.146 754.6C305.217 754.607 305.266 754.611 305.293 754.611C305.539 754.611 305.748 754.578 305.92 754.512C306.092 754.449 306.236 754.342 306.354 754.189C306.475 754.041 306.578 753.836 306.664 753.574L307.115 752.344ZM305.82 746.66L307.467 751.582L307.748 752.725L306.969 753.123L304.637 746.66H305.82Z" fill="#A5A5A5"/>
<path d="M288.667 705.333C287.667 705.333 287 706 287 707V737C287 738 287.667 738.667 288.667 738.667C289.667 738.667 290.333 738 290.333 737V707C290.333 706 289.667 705.333 288.667 705.333ZM280.333 722C279.333 722 278.667 722.667 278.667 723.667V737C278.667 738 279.333 738.667 280.333 738.667C281.333 738.667 282 738 282 737V723.667C282 722.667 281.333 722 280.333 722ZM297 715.333C296 715.333 295.333 716 295.333 717V737C295.333 738 296 738.667 297 738.667C298 738.667 298.667 738 298.667 737V717C298.667 716 298 715.333 297 715.333ZM305.333 728.667C304.333 728.667 303.667 729.333 303.667 730.333V737C303.667 738 304.333 738.667 305.333 738.667C306.333 738.667 307 738 307 737V730.333C307 729.333 306.333 728.667 305.333 728.667Z" fill="#A5A5A5"/>
<path d="M118.559 748.465V749.004C118.559 749.645 118.479 750.219 118.318 750.727C118.158 751.234 117.928 751.666 117.627 752.021C117.326 752.377 116.965 752.648 116.543 752.836C116.125 753.023 115.656 753.117 115.137 753.117C114.633 753.117 114.17 753.023 113.748 752.836C113.33 752.648 112.967 752.377 112.658 752.021C112.354 751.666 112.117 751.234 111.949 750.727C111.781 750.219 111.697 749.645 111.697 749.004V748.465C111.697 747.824 111.779 747.252 111.943 746.748C112.111 746.24 112.348 745.809 112.652 745.453C112.957 745.094 113.318 744.82 113.736 744.633C114.158 744.445 114.621 744.352 115.125 744.352C115.645 744.352 116.113 744.445 116.531 744.633C116.953 744.82 117.314 745.094 117.615 745.453C117.92 745.809 118.152 746.24 118.312 746.748C118.477 747.252 118.559 747.824 118.559 748.465ZM117.439 749.004V748.453C117.439 747.945 117.387 747.496 117.281 747.105C117.18 746.715 117.029 746.387 116.83 746.121C116.631 745.855 116.387 745.654 116.098 745.518C115.812 745.381 115.488 745.312 115.125 745.312C114.773 745.312 114.455 745.381 114.17 745.518C113.889 745.654 113.646 745.855 113.443 746.121C113.244 746.387 113.09 746.715 112.98 747.105C112.871 747.496 112.816 747.945 112.816 748.453V749.004C112.816 749.516 112.871 749.969 112.98 750.363C113.09 750.754 113.246 751.084 113.449 751.354C113.656 751.619 113.9 751.82 114.182 751.957C114.467 752.094 114.785 752.162 115.137 752.162C115.504 752.162 115.83 752.094 116.115 751.957C116.4 751.82 116.641 751.619 116.836 751.354C117.035 751.084 117.186 750.754 117.287 750.363C117.389 749.969 117.439 749.516 117.439 749.004ZM122.016 752.021L123.75 746.66H124.857L122.578 753H121.852L122.016 752.021ZM120.568 746.66L122.355 752.051L122.479 753H121.752L119.455 746.66H120.568ZM128.449 753.117C128.008 753.117 127.607 753.043 127.248 752.895C126.893 752.742 126.586 752.529 126.328 752.256C126.074 751.982 125.879 751.658 125.742 751.283C125.605 750.908 125.537 750.498 125.537 750.053V749.807C125.537 749.291 125.613 748.832 125.766 748.43C125.918 748.023 126.125 747.68 126.387 747.398C126.648 747.117 126.945 746.904 127.277 746.76C127.609 746.615 127.953 746.543 128.309 746.543C128.762 746.543 129.152 746.621 129.48 746.777C129.812 746.934 130.084 747.152 130.295 747.434C130.506 747.711 130.662 748.039 130.764 748.418C130.865 748.793 130.916 749.203 130.916 749.648V750.135H126.182V749.25H129.832V749.168C129.816 748.887 129.758 748.613 129.656 748.348C129.559 748.082 129.402 747.863 129.188 747.691C128.973 747.52 128.68 747.434 128.309 747.434C128.062 747.434 127.836 747.486 127.629 747.592C127.422 747.693 127.244 747.846 127.096 748.049C126.947 748.252 126.832 748.5 126.75 748.793C126.668 749.086 126.627 749.424 126.627 749.807V750.053C126.627 750.354 126.668 750.637 126.75 750.902C126.836 751.164 126.959 751.395 127.119 751.594C127.283 751.793 127.48 751.949 127.711 752.062C127.945 752.176 128.211 752.232 128.508 752.232C128.891 752.232 129.215 752.154 129.48 751.998C129.746 751.842 129.979 751.633 130.178 751.371L130.834 751.893C130.697 752.1 130.523 752.297 130.312 752.484C130.102 752.672 129.842 752.824 129.533 752.941C129.229 753.059 128.867 753.117 128.449 753.117ZM133.266 747.656V753H132.182V746.66H133.236L133.266 747.656ZM135.246 746.625L135.24 747.633C135.15 747.613 135.064 747.602 134.982 747.598C134.904 747.59 134.814 747.586 134.713 747.586C134.463 747.586 134.242 747.625 134.051 747.703C133.859 747.781 133.697 747.891 133.564 748.031C133.432 748.172 133.326 748.34 133.248 748.535C133.174 748.727 133.125 748.938 133.102 749.168L132.797 749.344C132.797 748.961 132.834 748.602 132.908 748.266C132.986 747.93 133.105 747.633 133.266 747.375C133.426 747.113 133.629 746.91 133.875 746.766C134.125 746.617 134.422 746.543 134.766 746.543C134.844 746.543 134.934 746.553 135.035 746.572C135.137 746.588 135.207 746.605 135.246 746.625ZM138.281 752.021L140.016 746.66H141.123L138.844 753H138.117L138.281 752.021ZM136.834 746.66L138.621 752.051L138.744 753H138.018L135.721 746.66H136.834ZM143.344 746.66V753H142.254V746.66H143.344ZM142.172 744.979C142.172 744.803 142.225 744.654 142.33 744.533C142.439 744.412 142.6 744.352 142.811 744.352C143.018 744.352 143.176 744.412 143.285 744.533C143.398 744.654 143.455 744.803 143.455 744.979C143.455 745.146 143.398 745.291 143.285 745.412C143.176 745.529 143.018 745.588 142.811 745.588C142.6 745.588 142.439 745.529 142.33 745.412C142.225 745.291 142.172 745.146 142.172 744.979ZM147.715 753.117C147.273 753.117 146.873 753.043 146.514 752.895C146.158 752.742 145.852 752.529 145.594 752.256C145.34 751.982 145.145 751.658 145.008 751.283C144.871 750.908 144.803 750.498 144.803 750.053V749.807C144.803 749.291 144.879 748.832 145.031 748.43C145.184 748.023 145.391 747.68 145.652 747.398C145.914 747.117 146.211 746.904 146.543 746.76C146.875 746.615 147.219 746.543 147.574 746.543C148.027 746.543 148.418 746.621 148.746 746.777C149.078 746.934 149.35 747.152 149.561 747.434C149.771 747.711 149.928 748.039 150.029 748.418C150.131 748.793 150.182 749.203 150.182 749.648V750.135H145.447V749.25H149.098V749.168C149.082 748.887 149.023 748.613 148.922 748.348C148.824 748.082 148.668 747.863 148.453 747.691C148.238 747.52 147.945 747.434 147.574 747.434C147.328 747.434 147.102 747.486 146.895 747.592C146.688 747.693 146.51 747.846 146.361 748.049C146.213 748.252 146.098 748.5 146.016 748.793C145.934 749.086 145.893 749.424 145.893 749.807V750.053C145.893 750.354 145.934 750.637 146.016 750.902C146.102 751.164 146.225 751.395 146.385 751.594C146.549 751.793 146.746 751.949 146.977 752.062C147.211 752.176 147.477 752.232 147.773 752.232C148.156 752.232 148.48 752.154 148.746 751.998C149.012 751.842 149.244 751.633 149.443 751.371L150.1 751.893C149.963 752.1 149.789 752.297 149.578 752.484C149.367 752.672 149.107 752.824 148.799 752.941C148.494 753.059 148.133 753.117 147.715 753.117ZM153.053 751.875L154.682 746.66H155.396L155.256 747.697L153.598 753H152.9L153.053 751.875ZM151.957 746.66L153.346 751.934L153.445 753H152.713L150.873 746.66H151.957ZM156.955 751.893L158.279 746.66H159.357L157.518 753H156.791L156.955 751.893ZM155.555 746.66L157.148 751.787L157.33 753H156.639L154.934 747.686L154.793 746.66H155.555Z" fill="#332317"/>
<path d="M152.167 719.167L137.167 705.833C136.5 705.333 135.667 705.333 135 705.833L120 719.167C119.333 719.833 119.167 720.833 119.833 721.5C120.5 722.167 121.5 722.333 122.167 721.667L122.667 721V737C122.667 738 123.333 738.667 124.333 738.667H147.667C148.667 738.667 149.333 738 149.333 737V721L149.833 721.5C150.5 722.167 151.5 722 152.167 721.333C152.833 720.833 152.833 719.667 152.167 719.167ZM136 720.333C138.5 720.333 140.5 722.333 140.5 724.833C140.5 727.333 138.5 729.333 136 729.333C133.5 729.333 131.5 727.333 131.5 724.833C131.5 722.333 133.5 720.333 136 720.333ZM127.667 735.333C127.667 735.167 127.667 735.167 127.833 735C131.5 730.5 138.167 729.667 142.667 733.333C143.333 733.833 143.833 734.333 144.333 735C144.333 735 144.333 735.167 144.5 735.333H127.667Z" fill="#332317"/>
<g filter="url(#filter0_d_19_404)">
<rect width="428" height="56" fill="#A77C5D"/>
</g>
<path d="M104.273 29.3086H99.7148V27.4688H104.273C105.156 27.4688 105.871 27.3281 106.418 27.0469C106.965 26.7656 107.363 26.375 107.613 25.875C107.871 25.375 108 24.8047 108 24.1641C108 23.5781 107.871 23.0273 107.613 22.5117C107.363 21.9961 106.965 21.582 106.418 21.2695C105.871 20.9492 105.156 20.7891 104.273 20.7891H100.242V36H97.9805V18.9375H104.273C105.562 18.9375 106.652 19.1602 107.543 19.6055C108.434 20.0508 109.109 20.668 109.57 21.457C110.031 22.2383 110.262 23.1328 110.262 24.1406C110.262 25.2344 110.031 26.168 109.57 26.9414C109.109 27.7148 108.434 28.3047 107.543 28.7109C106.652 29.1094 105.562 29.3086 104.273 29.3086ZM112.055 29.8008V29.5312C112.055 28.6172 112.188 27.7695 112.453 26.9883C112.719 26.1992 113.102 25.5156 113.602 24.9375C114.102 24.3516 114.707 23.8984 115.418 23.5781C116.129 23.25 116.926 23.0859 117.809 23.0859C118.699 23.0859 119.5 23.25 120.211 23.5781C120.93 23.8984 121.539 24.3516 122.039 24.9375C122.547 25.5156 122.934 26.1992 123.199 26.9883C123.465 27.7695 123.598 28.6172 123.598 29.5312V29.8008C123.598 30.7148 123.465 31.5625 123.199 32.3438C122.934 33.125 122.547 33.8086 122.039 34.3945C121.539 34.9727 120.934 35.4258 120.223 35.7539C119.52 36.0742 118.723 36.2344 117.832 36.2344C116.941 36.2344 116.141 36.0742 115.43 35.7539C114.719 35.4258 114.109 34.9727 113.602 34.3945C113.102 33.8086 112.719 33.125 112.453 32.3438C112.188 31.5625 112.055 30.7148 112.055 29.8008ZM114.223 29.5312V29.8008C114.223 30.4336 114.297 31.0312 114.445 31.5938C114.594 32.1484 114.816 32.6406 115.113 33.0703C115.418 33.5 115.797 33.8398 116.25 34.0898C116.703 34.332 117.23 34.4531 117.832 34.4531C118.426 34.4531 118.945 34.332 119.391 34.0898C119.844 33.8398 120.219 33.5 120.516 33.0703C120.812 32.6406 121.035 32.1484 121.184 31.5938C121.34 31.0312 121.418 30.4336 121.418 29.8008V29.5312C121.418 28.9062 121.34 28.3164 121.184 27.7617C121.035 27.1992 120.809 26.7031 120.504 26.2734C120.207 25.8359 119.832 25.4922 119.379 25.2422C118.934 24.9922 118.41 24.8672 117.809 24.8672C117.215 24.8672 116.691 24.9922 116.238 25.2422C115.793 25.4922 115.418 25.8359 115.113 26.2734C114.816 26.7031 114.594 27.1992 114.445 27.7617C114.297 28.3164 114.223 28.9062 114.223 29.5312ZM128.672 18V36H126.492V18H128.672ZM134.508 23.3203V36H132.328V23.3203H134.508ZM132.164 19.957C132.164 19.6055 132.27 19.3086 132.48 19.0664C132.699 18.8242 133.02 18.7031 133.441 18.7031C133.855 18.7031 134.172 18.8242 134.391 19.0664C134.617 19.3086 134.73 19.6055 134.73 19.957C134.73 20.293 134.617 20.582 134.391 20.8242C134.172 21.0586 133.855 21.1758 133.441 21.1758C133.02 21.1758 132.699 21.0586 132.48 20.8242C132.27 20.582 132.164 20.293 132.164 19.957ZM140.145 25.8398V36H137.965V23.3203H140.027L140.145 25.8398ZM139.699 29.1797L138.691 29.1445C138.699 28.2773 138.812 27.4766 139.031 26.7422C139.25 26 139.574 25.3555 140.004 24.8086C140.434 24.2617 140.969 23.8398 141.609 23.543C142.25 23.2383 142.992 23.0859 143.836 23.0859C144.43 23.0859 144.977 23.1719 145.477 23.3438C145.977 23.5078 146.41 23.7695 146.777 24.1289C147.145 24.4883 147.43 24.9492 147.633 25.5117C147.836 26.0742 147.938 26.7539 147.938 27.5508V36H145.77V27.6562C145.77 26.9922 145.656 26.4609 145.43 26.0625C145.211 25.6641 144.898 25.375 144.492 25.1953C144.086 25.0078 143.609 24.9141 143.062 24.9141C142.422 24.9141 141.887 25.0273 141.457 25.2539C141.027 25.4805 140.684 25.793 140.426 26.1914C140.168 26.5898 139.98 27.0469 139.863 27.5625C139.754 28.0703 139.699 28.6094 139.699 29.1797ZM147.914 27.9844L146.461 28.4297C146.469 27.7344 146.582 27.0664 146.801 26.4258C147.027 25.7852 147.352 25.2148 147.773 24.7148C148.203 24.2148 148.73 23.8203 149.355 23.5312C149.98 23.2344 150.695 23.0859 151.5 23.0859C152.18 23.0859 152.781 23.1758 153.305 23.3555C153.836 23.5352 154.281 23.8125 154.641 24.1875C155.008 24.5547 155.285 25.0273 155.473 25.6055C155.66 26.1836 155.754 26.8711 155.754 27.668V36H153.574V27.6445C153.574 26.9336 153.461 26.3828 153.234 25.9922C153.016 25.5938 152.703 25.3164 152.297 25.1602C151.898 24.9961 151.422 24.9141 150.867 24.9141C150.391 24.9141 149.969 24.9961 149.602 25.1602C149.234 25.3242 148.926 25.5508 148.676 25.8398C148.426 26.1211 148.234 26.4453 148.102 26.8125C147.977 27.1797 147.914 27.5703 147.914 27.9844ZM158.461 29.8008V29.5312C158.461 28.6172 158.594 27.7695 158.859 26.9883C159.125 26.1992 159.508 25.5156 160.008 24.9375C160.508 24.3516 161.113 23.8984 161.824 23.5781C162.535 23.25 163.332 23.0859 164.215 23.0859C165.105 23.0859 165.906 23.25 166.617 23.5781C167.336 23.8984 167.945 24.3516 168.445 24.9375C168.953 25.5156 169.34 26.1992 169.605 26.9883C169.871 27.7695 170.004 28.6172 170.004 29.5312V29.8008C170.004 30.7148 169.871 31.5625 169.605 32.3438C169.34 33.125 168.953 33.8086 168.445 34.3945C167.945 34.9727 167.34 35.4258 166.629 35.7539C165.926 36.0742 165.129 36.2344 164.238 36.2344C163.348 36.2344 162.547 36.0742 161.836 35.7539C161.125 35.4258 160.516 34.9727 160.008 34.3945C159.508 33.8086 159.125 33.125 158.859 32.3438C158.594 31.5625 158.461 30.7148 158.461 29.8008ZM160.629 29.5312V29.8008C160.629 30.4336 160.703 31.0312 160.852 31.5938C161 32.1484 161.223 32.6406 161.52 33.0703C161.824 33.5 162.203 33.8398 162.656 34.0898C163.109 34.332 163.637 34.4531 164.238 34.4531C164.832 34.4531 165.352 34.332 165.797 34.0898C166.25 33.8398 166.625 33.5 166.922 33.0703C167.219 32.6406 167.441 32.1484 167.59 31.5938C167.746 31.0312 167.824 30.4336 167.824 29.8008V29.5312C167.824 28.9062 167.746 28.3164 167.59 27.7617C167.441 27.1992 167.215 26.7031 166.91 26.2734C166.613 25.8359 166.238 25.4922 165.785 25.2422C165.34 24.9922 164.816 24.8672 164.215 24.8672C163.621 24.8672 163.098 24.9922 162.645 25.2422C162.199 25.4922 161.824 25.8359 161.52 26.2734C161.223 26.7031 161 27.1992 160.852 27.7617C160.703 28.3164 160.629 28.9062 160.629 29.5312ZM174.891 25.3125V36H172.723V23.3203H174.832L174.891 25.3125ZM178.852 23.25L178.84 25.2656C178.66 25.2266 178.488 25.2031 178.324 25.1953C178.168 25.1797 177.988 25.1719 177.785 25.1719C177.285 25.1719 176.844 25.25 176.461 25.4062C176.078 25.5625 175.754 25.7812 175.488 26.0625C175.223 26.3438 175.012 26.6797 174.855 27.0703C174.707 27.4531 174.609 27.875 174.562 28.3359L173.953 28.6875C173.953 27.9219 174.027 27.2031 174.176 26.5312C174.332 25.8594 174.57 25.2656 174.891 24.75C175.211 24.2266 175.617 23.8203 176.109 23.5312C176.609 23.2344 177.203 23.0859 177.891 23.0859C178.047 23.0859 178.227 23.1055 178.43 23.1445C178.633 23.1758 178.773 23.2109 178.852 23.25ZM184.277 36H182.109V21.9844C182.109 21.0703 182.273 20.3008 182.602 19.6758C182.938 19.043 183.418 18.5664 184.043 18.2461C184.668 17.918 185.41 17.7539 186.27 17.7539C186.52 17.7539 186.77 17.7695 187.02 17.8008C187.277 17.832 187.527 17.8789 187.77 17.9414L187.652 19.7109C187.488 19.6719 187.301 19.6445 187.09 19.6289C186.887 19.6133 186.684 19.6055 186.48 19.6055C186.02 19.6055 185.621 19.6992 185.285 19.8867C184.957 20.0664 184.707 20.332 184.535 20.6836C184.363 21.0352 184.277 21.4688 184.277 21.9844V36ZM186.973 23.3203V24.9844H180.105V23.3203H186.973Z" fill="#332317"/>
<path d="M22.0927 24.4773C22.4306 24.1394 22.4306 23.5914 22.0927 23.2535C21.7547 22.9155 21.2068 22.9155 20.8688 23.2535L16.2535 27.8688C16.0845 28.0378 16 28.2593 16 28.4808C16 28.5981 16.0234 28.71 16.0657 28.812C16.1079 28.9141 16.1705 29.0097 16.2535 29.0927L20.8688 33.7081C21.2068 34.046 21.7547 34.046 22.0927 33.7081C22.4306 33.3701 22.4306 32.8222 22.0927 32.4842L18.9546 29.3462H30.1346C30.6126 29.3462 31 28.9587 31 28.4808C31 28.0028 30.6126 27.6154 30.1346 27.6154H18.9546L22.0927 24.4773Z" fill="#332317"/>
<rect x="48.5" y="10.5" width="35" height="35" rx="17.5" fill="#C4C4C4" stroke="#A77C5D"/>
<path fill-rule="evenodd" clip-rule="evenodd" d="M76.2129 26.1207C75.8896 26.4656 75.6 27.0569 75.6 28C75.6 28.6627 75.0627 29.2 74.4 29.2C73.7372 29.2 73.2 28.6627 73.2 28C73.2 26.5431 73.6604 25.3344 74.462 24.4793C75.258 23.6303 76.328 23.2 77.4 23.2C78.472 23.2 79.542 23.6303 80.3379 24.4793C81.1396 25.3344 81.6 26.5431 81.6 28C81.6 28.6628 81.0627 29.2 80.4 29.2C79.7372 29.2 79.2 28.6628 79.2 28C79.2 27.0569 78.9104 26.4656 78.587 26.1207C78.258 25.7697 77.828 25.6 77.4 25.6C76.972 25.6 76.542 25.7697 76.2129 26.1207Z" fill="#0C5497"/>
<path fill-rule="evenodd" clip-rule="evenodd" d="M73.2 34.35C74.6937 32.6577 75.6 30.4347 75.6 28V18.4L72.7882 21.2118C71.051 19.4745 68.651 18.4 66 18.4C63.349 18.4 60.949 19.4745 59.2118 21.2118L56.4 18.4V28C56.4 30.4347 57.3063 32.6577 58.8 34.35V36.4C58.8 37.0627 59.3373 37.6 60 37.6C60.6627 37.6 61.2 37.0627 61.2 36.4V36.3157C61.584 36.5378 61.9848 36.7341 62.4 36.9022V38.8C62.4 39.4627 62.9373 40 63.6 40C64.2627 40 64.8 39.4627 64.8 38.8V37.5257C65.1931 37.5747 65.5936 37.6 66 37.6C66.4064 37.6 66.8069 37.5747 67.2 37.5257V38.8C67.2 39.4627 67.7373 40 68.4 40C69.0627 40 69.6 39.4627 69.6 38.8V36.9022C70.0152 36.7341 70.416 36.5378 70.8 36.3157V36.4C70.8 37.0627 71.3373 37.6 72 37.6C72.6627 37.6 73.2 37.0627 73.2 36.4V34.35Z" fill="#0C5497"/>
<ellipse cx="61.2" cy="24.4" rx="1.2" ry="1.2" fill="#C4C4C4"/>
<circle cx="70.8" cy="24.4" r="1.2" fill="#C4C4C4"/>
<path fill-rule="evenodd" clip-rule="evenodd" d="M67.8 24.4C67.4686 24.4 67.2 24.6686 67.2 25C67.2 25.4372 67.042 25.721 66.8389 25.9015C66.6247 26.0919 66.3222 26.2 66 26.2C65.6778 26.2 65.3753 26.0919 65.1611 25.9015C64.958 25.721 64.8 25.4372 64.8 25C64.8 24.6686 64.5314 24.4 64.2 24.4C63.8686 24.4 63.6 24.6686 63.6 25C63.6 25.7628 63.892 26.379 64.3639 26.7984C64.8247 27.2081 65.4222 27.4 66 27.4C66.5778 27.4 67.1753 27.2081 67.6361 26.7984C68.108 26.379 68.4 25.7628 68.4 25C68.4 24.6686 68.1314 24.4 67.8 24.4Z" fill="#C4C4C4"/>
<path d="M406.607 19.5C406.739 19.5 406.866 19.5527 406.96 19.6464L409.789 22.4749C409.984 22.6701 409.984 22.9867 409.789 23.182L400.596 32.3744C400.533 32.4372 400.455 32.4821 400.369 32.5046L396.541 33.5046C396.369 33.5494 396.186 33.4999 396.061 33.3744C395.935 33.2489 395.886 33.0662 395.93 32.8945L396.93 29.066C396.953 28.9801 396.998 28.9017 397.061 28.8388L406.253 19.6464C406.347 19.5527 406.474 19.5 406.607 19.5Z" fill="#332317"/>
<path d="M396 35.25C395.586 35.25 395.25 35.5858 395.25 36C395.25 36.4142 395.586 36.75 396 36.75H411C411.414 36.75 411.75 36.4142 411.75 36C411.75 35.5858 411.414 35.25 411 35.25H396Z" fill="#332317"/>
</g>
<defs>
<filter id="filter0_d_19_404" x="-4" y="0" width="436" height="64" filterUnits="userSpaceOnUse" color-interpolation-filters="sRGB">
<feFlood flood-opacity="0" result="BackgroundImageFix"/>
<feColorMatrix in="SourceAlpha" type="matrix" values="0 0 0 0 0 0 0 0 0 0 0 0 0 0 0 0 0 0 127 0" result="hardAlpha"/>
<feOffset dy="4"/>
<feGaussianBlur stdDeviation="2"/>
<feComposite in2="hardAlpha" operator="out"/>
<feColorMatrix type="matrix" values="0 0 0 0 0 0 0 0 0 0 0 0 0 0 0 0 0 0 0.25 0"/>
<feBlend mode="normal" in2="BackgroundImageFix" result="effect1_dropShadow_19_404"/>
<feBlend mode="normal" in="SourceGraphic" in2="effect1_dropShadow_19_404" result="shape"/>
</filter>
<clipPath id="clip0_19_404">
<rect width="428" height="762" fill="white"/>
</clipPath>
<clipPath id="clip1_19_404">
<rect width="176" height="126" fill="white" transform="translate(12 80)"/>
</clipPath>
<clipPath id="clip2_19_404">
<rect width="79" height="126" fill="white" transform="translate(12 80)"/>
</clipPath>
<clipPath id="clip3_19_404">
<rect width="81" height="126" fill="white" transform="translate(107 80)"/>
</clipPath>
<clipPath id="clip4_19_404">
<rect width="70" height="24" fill="white" transform="translate(107 80)"/>
</clipPath>
</defs>
</svg>
